<svg xmlns="http://www.w3.org/2000/svg" xmlns:xlink="http://www.w3.org/1999/xlink" width="1920" height="760" viewBox="0 0 1920 760">
  <defs>
    <clipPath id="clip-path">
      <rect id="down_bg" data-name="down / bg" width="1920" height="760" transform="translate(0 3315)" fill="#f0f1f5"/>
    </clipPath>
  </defs>
  <g id="background" transform="translate(0 -3315)">
    <g id="down_bg-2" data-name="down / bg">
      <rect id="down_bg-3" data-name="down / bg" width="1920" height="760" transform="translate(0 3315)" fill="#f0f1f5"/>
      <g id="Clip" clip-path="url(#clip-path)">
        <g id="shape_01" transform="translate(178.882 3973.04)">
          <path id="Контур_13" data-name="Контур 13" d="M114.61,66.769c-5.657,2.853-10.764,6.812-16.42,11.22-12.363,9.634-23.072,21.2-23.072,37.828,1.035,22.853,20.643,35,36.944,47.912,34.471,27.315,86.462,42.273,129.5,27.305,21.5-7.478,36.263-29.136,33.133-52.605-2.883-21.618-36.476-37.179-53.132-47.29C205.53,81.4,188.042,72.865,170.05,67.451,153.177,62.374,131.028,58.487,114.61,66.769Z" fill="#11aba0"/>
        </g>
      </g>
    </g>
    <g id="shape_02" transform="matrix(0.866, 0.5, -0.5, 0.866, -443.432, 2942.187)">
      <g id="Сгруппировать_2" data-name="Сгруппировать 2">
        <path id="Контур_14" data-name="Контур 14" d="M836.365,296.511c-1.462-3.322-6-9.3-10.123-6.5-3.408,2.312-1.725,7.77.4,10.359,1.662,2.024,5.266,4.354,7.765,2.436C835.79,301.745,836.492,298.621,836.365,296.511Z" fill="#8671ff"/>
        <path id="Контур_15" data-name="Контур 15" d="M848.973,314.1c-3.764-8.861-12.35-.55-6.454,3.718,1.892,1.37,3.888,2.13,5.583.276a3.984,3.984,0,0,0,.71-4.584" fill="#8671ff"/>
        <path id="Контур_16" data-name="Контур 16" d="M829.2,320.978c-5.894-9.493-15.844,2.66-7.418,6.31C826.509,329.336,828.889,325.206,829.2,320.978Z" fill="#8671ff"/>
        <path id="Контур_17" data-name="Контур 17" d="M839.5,337.549c-3.13-.618-6.376-.424-7.309,3.2,1.69,1.454,4.681,3.038,6.9,1.677,1.4-.859,2.719-3.9.948-4.769" fill="#8671ff"/>
        <path id="Контур_18" data-name="Контур 18" d="M858.532,299.873c-.266-4.369-7.33-8.172-6.437-1.64.567,4.146,5.582,6.845,6.437,1.64" fill="#8671ff"/>
        <path id="Контур_19" data-name="Контур 19" d="M814.525,306.807c.563-3.021-.869-4.93-3.865-5.935-2.35-.788-3.51-.441-3.908,2.071C806.156,306.73,814.215,311.347,814.525,306.807Z" fill="#8671ff"/>
        <path id="Контур_20" data-name="Контур 20" d="M856.835,337.267c-.863-1.115-2.825-4.274-4.564-3.028-1.265.906-.472,2.446.074,3.4.574,1.008,1.983,3.02,3.45,2.638.977-.255,1.683-2.124.835-2.878" fill="#8671ff"/>
        <path id="Контур_21" data-name="Контур 21" d="M874.849,318.631c-1.181-2-5.057-4.979-7.294-2.771-1.768,1.744-.166,3.606,1.5,4.526C871.3,321.627,874.29,321.325,874.849,318.631Z" fill="#8671ff"/>
        <path id="Контур_22" data-name="Контур 22" d="M876.9,337.578c-1.135-1.357-3.985-3.708-5.9-2.658a2.851,2.851,0,0,0-.7,4.188C871.838,340.988,876.453,340.669,876.9,337.578Z" fill="#8671ff"/>
      </g>
    </g>
    <g id="shape_03" transform="matrix(-1, 0, 0, -1, 1711.736, 3464.41)">
      <g id="Сгруппировать_3" data-name="Сгруппировать 3">
        <path id="Контур_23" data-name="Контур 23" d="M167.656-50.746c-4.458,1.483-5.982,6.371-10.522,7.4a13.276,13.276,0,0,1-5.4-.23,23.433,23.433,0,0,0-7-.7c3.234-2.114,3.784-5.657,7.816-6.875a32.517,32.517,0,0,0,4.9-1.931c1.959-.951,3.289-.422,5.214.268A28.861,28.861,0,0,1,167.656-50.746Z" fill="#ff5f6e"/>
        <path id="Контур_24" data-name="Контур 24" d="M167.851-46.911c-5.6-.422-5.392,8.628-7.688,11.634-2,2.62-5.026,3.15-7.608,5.044a8.079,8.079,0,0,0-3.343,5.4c-.238,1.129-.2,2.547-.79,3.246,4.092-3.694,11.231-1.769,14.2-7.19,1.442-2.637,2.067-4.46,4.591-6.189,2.441-1.671,2.829-2.955,2.334-5.823C169.188-42.854,168.909-45.116,167.851-46.911Z" fill="#ff5f6e"/>
        <path id="Контур_25" data-name="Контур 25" d="M171.121-51.348c-2.8,1.948,1.177,6.021,2.172,7.765a11.072,11.072,0,0,1,1.31,3.231,8.035,8.035,0,0,1-.391,2.907c-.532,3.344,1.884,5.726,3.308,8.438,1.509-3.917,3.785-7.279,3.087-11.7a13.217,13.217,0,0,0-6.207-8.84A13.5,13.5,0,0,0,171.121-51.348Z" fill="#ff5f6e"/>
      </g>
    </g>
    <g id="shape_04">
      <g id="Сгруппировать_4" data-name="Сгруппировать 4">
        <path id="Контур_26" data-name="Контур 26" d="M1628.053,3724.9c1.385-2.037,2.791-4.086,5.38-4.3,2.353-.195,4.367.215,6.508-.93a21.554,21.554,0,0,0,5.285-3.842c1.271-1.273,2.226-2.943,3.7-3.976a9.655,9.655,0,0,1,6.354-1.931c2.691.216,4.771-.056,6.807-1.684,2.195-1.755,3.582-4.755,5.227-7.136a7.782,7.782,0,0,1,3.419-2.966c2.051-.88,4.56-.543,6.65-1.282" fill="none" stroke="#21bfd8" stroke-miterlimit="10" stroke-width="3"/>
        <path id="Контур_27" data-name="Контур 27" d="M1632.063,3732.469c1.8-1.875,3.989-4.2,6.834-4.339a13.823,13.823,0,0,0,3.563-.138,13.276,13.276,0,0,0,5.8-4.037c2.78-2.936,5.246-5.5,9.4-6.279a26.531,26.531,0,0,1,5.288-.259,10.07,10.07,0,0,0,5.9-2.391c2.348-1.732,3.664-4.194,5.233-6.774a7.747,7.747,0,0,1,4.406-3.818" fill="none" stroke="#21bfd8" stroke-miterlimit="10" stroke-width="3"/>
        <path id="Контур_28" data-name="Контур 28" d="M1635.876,3739.7c1.226-1.428,2.227-2.838,3.932-3.672a9.371,9.371,0,0,1,3.736-.466c1.655-.03,3.228.31,4.71-.346a14.948,14.948,0,0,0,5.7-4.666,12.246,12.246,0,0,1,10.261-4.881c4.947.016,7.846-2.719,10.731-6.443,3.12-4.026,6.274-9.077,12.011-8.593" fill="none" stroke="#21bfd8" stroke-miterlimit="10" stroke-width="3"/>
        <path id="Контур_29" data-name="Контур 29" d="M1639.633,3747.412c1.138-1.3,1.787-2.9,3.495-3.469,1.745-.579,3.765-.064,5.635-.158a13.98,13.98,0,0,0,6.7-2.221c2.007-1.2,3.247-3.064,4.955-4.61,3.872-3.506,10.054-3.332,14.47-5.917a27.256,27.256,0,0,0,4.294-2.784c1.38-1.2,2.405-2.751,3.685-4.071a20.723,20.723,0,0,1,4.082-3.5c.671-.408,1.445-1.291,2.24-1.3" fill="none" stroke="#21bfd8" stroke-miterlimit="10" stroke-width="3"/>
      </g>
    </g>
  </g>
</svg>
