<svg xmlns="http://www.w3.org/2000/svg">
    <symbol id="facebook" viewBox="0 0 16 16" width="16" height="16">
        <path d="M 10.664062 2.65625 L 12.125 2.65625 L 12.125 0.113281 C 11.875 0.078125 11.007812 0 9.996094 0 C 7.890625 0 6.449219 1.324219 6.449219 3.757812 L 6.449219 6 L 4.125 6 L 4.125 8.84375 L 6.449219 8.84375 L 6.449219 16 L 9.296875 16 L 9.296875 8.84375 L 11.527344 8.84375 L 11.882812 6 L 9.296875 6 L 9.296875 4.042969 C 9.296875 3.21875 9.519531 2.65625 10.664062 2.65625 Z M 10.664062 2.65625 "/>
    </symbol>

    <symbol id="twitter" viewBox="0 0 16 16" width="16" height="16">
        <path  d="M 14.355469 4.742188 C 15.007812 4.28125 15.554688 3.703125 16 3.039062 C 15.40625 3.300781 14.769531 3.472656 14.109375 3.558594 C 14.789062 3.152344 15.308594 2.511719 15.554688 1.742188 C 14.917969 2.121094 14.21875 2.386719 13.472656 2.539062 C 12.871094 1.898438 12.011719 1.5 11.078125 1.5 C 9.261719 1.5 7.800781 2.972656 7.800781 4.78125 C 7.800781 5.039062 7.820312 5.289062 7.875 5.527344 C 5.148438 5.394531 2.734375 4.089844 1.113281 2.097656 C 0.832031 2.589844 0.664062 3.152344 0.664062 3.753906 C 0.664062 4.890625 1.25 5.898438 2.121094 6.480469 C 1.59375 6.472656 1.078125 6.316406 0.640625 6.078125 L 0.640625 6.113281 C 0.640625 7.707031 1.777344 9.03125 3.269531 9.335938 C 3 9.410156 2.710938 9.445312 2.40625 9.445312 C 2.199219 9.445312 1.984375 9.433594 1.789062 9.386719 C 2.210938 10.6875 3.417969 11.644531 4.851562 11.675781 C 3.734375 12.546875 2.320312 13.074219 0.785156 13.074219 C 0.515625 13.074219 0.257812 13.0625 0 13.027344 C 1.453125 13.964844 3.175781 14.5 5.03125 14.5 C 10.820312 14.5 14.59375 9.671875 14.355469 4.742188 Z M 14.355469 4.742188 "/>
    </symbol>

    <symbol id="linkedin" viewBox="0 0 16 16" width="16" height="16">
        <path d="M 2.3125 0.8125 C 1.210938 0.8125 0.492188 1.535156 0.492188 2.484375 C 0.492188 3.414062 1.191406 4.15625 2.269531 4.15625 L 2.292969 4.15625 C 3.414062 4.15625 4.113281 3.414062 4.113281 2.484375 C 4.089844 1.535156 3.414062 0.8125 2.3125 0.8125 Z M 2.3125 0.8125 "/>
        <path d="M 0.683594 5.480469 L 3.898438 5.480469 L 3.898438 15.160156 L 0.683594 15.160156 Z M 0.683594 5.480469 "/>
        <path d="M 11.796875 5.253906 C 10.0625 5.253906 8.898438 6.882812 8.898438 6.882812 L 8.898438 5.480469 L 5.679688 5.480469 L 5.679688 15.160156 L 8.898438 15.160156 L 8.898438 9.753906 C 8.898438 9.464844 8.917969 9.175781 9.003906 8.96875 C 9.234375 8.390625 9.765625 7.792969 10.652344 7.792969 C 11.820312 7.792969 12.285156 8.679688 12.285156 9.980469 L 12.285156 15.160156 L 15.5 15.160156 L 15.5 9.609375 C 15.5 6.636719 13.914062 5.253906 11.796875 5.253906 Z M 11.796875 5.253906 "/>
    </symbol>

    <symbol id="vimeo" viewBox="0 0 16 16" width="16" height="16">
        <path d="M 9.179688 4.773438 C 11.003906 3.679688 11.984375 5.222656 11.050781 6.964844 C 10.113281 8.714844 9.253906 9.855469 8.8125 9.855469 C 8.375 9.855469 8.027344 8.683594 7.515625 6.644531 C 6.992188 4.535156 6.992188 0.726562 4.792969 1.160156 C 2.71875 1.570312 0 4.820312 0 4.820312 L 0.644531 5.671875 C 0.644531 5.671875 1.984375 4.613281 2.433594 5.140625 C 2.882812 5.671875 4.59375 12.046875 5.160156 13.226562 C 5.65625 14.257812 7.027344 15.621094 8.523438 14.648438 C 10.035156 13.671875 15.027344 9.410156 15.921875 4.367188 C 16.8125 -0.667969 9.90625 0.386719 9.179688 4.773438 Z M 9.179688 4.773438 "/>
    </symbol>

    <symbol id="mail" viewBox="0 0 14 14" width="14" height="14">
        <path d="M 12.769531 2.078125 L 1.230469 2.078125 C 0.550781 2.078125 0 2.632812 0 3.308594 L 0 10.691406 C 0 11.371094 0.554688 11.921875 1.230469 11.921875 L 12.769531 11.921875 C 13.445312 11.921875 14 11.375 14 10.691406 L 14 3.308594 C 14 2.632812 13.453125 2.078125 12.769531 2.078125 Z M 12.597656 2.898438 C 12.347656 3.148438 8.019531 7.453125 7.871094 7.601562 C 7.636719 7.832031 7.328125 7.960938 7 7.960938 C 6.671875 7.960938 6.363281 7.832031 6.128906 7.601562 C 6.027344 7.5 1.75 3.242188 1.402344 2.898438 Z M 0.820312 10.523438 L 0.820312 3.476562 L 4.363281 7.003906 Z M 1.402344 11.101562 L 4.945312 7.582031 L 5.550781 8.179688 C 5.9375 8.566406 6.453125 8.78125 7 8.78125 C 7.546875 8.78125 8.0625 8.566406 8.449219 8.179688 L 9.054688 7.582031 L 12.597656 11.101562 Z M 13.179688 10.523438 L 9.636719 7.003906 L 13.179688 3.476562 Z M 13.179688 10.523438 "/>
    </symbol>

    <symbol id="search" viewBox="0 0 17 17" width="17" height="17">
        <path d="M 7.488281 0 C 3.359375 0 0 3.359375 0 7.488281 C 0 11.613281 3.359375 14.972656 7.488281 14.972656 C 11.613281 14.972656 14.972656 11.613281 14.972656 7.488281 C 14.972656 3.359375 11.613281 0 7.488281 0 Z M 7.488281 13.589844 C 4.121094 13.589844 1.382812 10.851562 1.382812 7.488281 C 1.382812 4.121094 4.121094 1.382812 7.488281 1.382812 C 10.851562 1.382812 13.589844 4.121094 13.589844 7.488281 C 13.589844 10.851562 10.851562 13.589844 7.488281 13.589844 Z M 7.488281 13.589844 "/>
        <path d="M 16.796875 15.820312 L 12.835938 11.859375 C 12.566406 11.589844 12.128906 11.589844 11.859375 11.859375 C 11.589844 12.128906 11.589844 12.566406 11.859375 12.835938 L 15.820312 16.796875 C 15.957031 16.933594 16.132812 17 16.308594 17 C 16.484375 17 16.664062 16.933594 16.796875 16.796875 C 17.066406 16.527344 17.066406 16.089844 16.796875 15.820312 Z M 16.796875 15.820312 "/>
    </symbol>

    <symbol id="arrow-right" viewBox="0 0 14 14" width="14" height="14">
        <path d="M 13.777344 6.457031 L 8.71875 1.398438 C 8.574219 1.253906 8.382812 1.175781 8.179688 1.175781 C 7.972656 1.175781 7.78125 1.253906 7.636719 1.398438 L 7.175781 1.859375 C 7.035156 2.003906 6.953125 2.195312 6.953125 2.402344 C 6.953125 2.605469 7.035156 2.804688 7.175781 2.949219 L 10.128906 5.90625 L 0.757812 5.90625 C 0.332031 5.90625 0 6.234375 0 6.660156 L 0 7.308594 C 0 7.730469 0.332031 8.09375 0.757812 8.09375 L 10.160156 8.09375 L 7.175781 11.066406 C 7.035156 11.210938 6.953125 11.398438 6.953125 11.605469 C 6.953125 11.808594 7.035156 12 7.175781 12.144531 L 7.636719 12.601562 C 7.78125 12.746094 7.972656 12.824219 8.179688 12.824219 C 8.382812 12.824219 8.574219 12.742188 8.71875 12.597656 L 13.777344 7.542969 C 13.921875 7.398438 14 7.207031 14 7 C 14 6.792969 13.921875 6.601562 13.777344 6.457031 Z M 13.777344 6.457031 "/>
    </symbol>

    <symbol id="morex" viewBox="0 0 130.876 29.168" width="130.876" height="29.168">
         <path id="Rounded_Rectangle_1" data-name="Rounded Rectangle 1" d="M27.392,12.148a7.162,7.162,0,0,1-3.779,2.913,7.244,7.244,0,0,1,3.719,11.327c.023-.06.039-.123.06-.184a7.108,7.108,0,0,1-5.975,3.277h-.25a7.15,7.15,0,0,1-6.807-5.047,7.286,7.286,0,0,1-1.053,1.955c.023-.06.039-.123.06-.184a7.108,7.108,0,0,1-5.975,3.277h-.25A7.231,7.231,0,0,1,1.477,17.876c-.023.06-.039.123-.06.184A7.162,7.162,0,0,1,5.2,15.147,7.244,7.244,0,0,1,1.477,3.82c-.023.06-.039.123-.06.184A7.108,7.108,0,0,1,7.391.727h.25a7.15,7.15,0,0,1,6.807,5.047A7.286,7.286,0,0,1,15.5,3.82c-.023.06-.039.123-.06.184A7.108,7.108,0,0,1,21.417.727h.25a7.231,7.231,0,0,1,5.664,11.605C27.354,12.272,27.371,12.209,27.392,12.148ZM21,25.934h.576a5.894,5.894,0,0,0,5.6-4.122,5.879,5.879,0,0,0-5.348-3.48h-.576a5.894,5.894,0,0,0-5.6,4.123A5.879,5.879,0,0,0,21,25.934ZM1.629,22.454a5.879,5.879,0,0,0,5.348,3.48h.576a5.894,5.894,0,0,0,5.6-4.122A5.879,5.879,0,0,0,7.8,18.331H7.228A5.894,5.894,0,0,0,1.629,22.454ZM7.8,4.275H7.228A5.894,5.894,0,0,0,1.629,8.4a5.879,5.879,0,0,0,5.348,3.48h.576a5.893,5.893,0,0,0,5.6-4.123A5.879,5.879,0,0,0,7.8,4.275Zm6.555,6.1a7.282,7.282,0,0,1-1.053,1.955c.023-.06.039-.123.06-.184a7.162,7.162,0,0,1-3.779,2.913,7.19,7.19,0,0,1,4.86,4.776A7.285,7.285,0,0,1,15.5,17.876c-.023.06-.039.123-.06.184a7.162,7.162,0,0,1,3.779-2.913A7.187,7.187,0,0,1,14.359,10.378Zm7.471-6.1h-.576a5.894,5.894,0,0,0-5.6,4.123A5.879,5.879,0,0,0,21,11.877h.576a5.893,5.893,0,0,0,5.6-4.123A5.879,5.879,0,0,0,21.83,4.275Z"/>
        <text id="MOREX-2" data-name="MOREX" transform="translate(83.878 23.314)" font-size="24" font-family="LibreFranklin-ExtraBoldItalic, Libre Franklin" font-weight="800" font-style="italic"><tspan x="-46.536" y="0">MOREX</tspan></text>
        <path id="Color_Overlay" data-name="Color Overlay" d="M966.166,6239.482a7.151,7.151,0,0,1-6.807-5.048,7.268,7.268,0,0,1-1.054,1.955c.023-.06.041-.123.061-.184a7.11,7.11,0,0,1-5.975,3.277h-.251a7.232,7.232,0,0,1-5.664-11.606c-.022.061-.039.124-.06.185A4.98,4.98,0,0,0,945,6218.2a7.233,7.233,0,0,1,1.474-4.383c-.022.06-.039.122-.06.183a7.106,7.106,0,0,1,5.974-3.276h.251a7.149,7.149,0,0,1,6.807,5.047,7.324,7.324,0,0,1,1.054-1.954c-.022.06-.039.122-.06.183a7.106,7.106,0,0,1,5.975-3.276h.249a7.229,7.229,0,0,1,5.664,11.6c.023-.06.041-.122.061-.183a4.979,4.979,0,0,0,1.414,9.857,7.234,7.234,0,0,1-1.475,4.382c.023-.06.041-.123.061-.184a7.109,7.109,0,0,1-5.974,3.277Zm-5.51-7.027a5.878,5.878,0,0,0,5.348,3.479h.578a4.063,4.063,0,1,0,.249-7.6h-.575A5.893,5.893,0,0,0,960.655,6232.455Zm-14.026,0a5.876,5.876,0,0,0,5.348,3.479h.576a4.063,4.063,0,1,0,.252-7.6h-.576A5.892,5.892,0,0,0,946.63,6232.455Zm7.956-7.393a7.19,7.19,0,0,1,4.861,4.776,7.3,7.3,0,0,1,1.055-1.962c-.022.061-.039.124-.06.185a3.917,3.917,0,1,0-1.084-7.683,7.29,7.29,0,0,1-1.054,1.955c.023-.06.041-.122.061-.183A7.163,7.163,0,0,1,954.586,6225.062Zm6.069-6.664a5.876,5.876,0,0,0,5.348,3.479h.578a4.063,4.063,0,1,0,.249-7.6h-.575A5.9,5.9,0,0,0,960.655,6218.4Zm-14.026,0a5.875,5.875,0,0,0,5.348,3.479h.576a4.063,4.063,0,1,0,.252-7.6h-.576A5.894,5.894,0,0,0,946.63,6218.4Zm63.432,14.256a6.027,6.027,0,0,1-2.556-2.579,8.511,8.511,0,0,1-.875-3.984,12.847,12.847,0,0,1,.119-1.849,11.674,11.674,0,0,1,1.693-4.764,9.065,9.065,0,0,1,3.324-3.121,9.313,9.313,0,0,1,4.511-1.091,8.018,8.018,0,0,1,3.949.925,6.221,6.221,0,0,1,2.556,2.639,8.713,8.713,0,0,1,.888,4.044,12.321,12.321,0,0,1-.121,1.824,11.556,11.556,0,0,1-1.68,4.715,8.862,8.862,0,0,1-3.3,3.072,9.433,9.433,0,0,1-4.5,1.068A8.37,8.37,0,0,1,1010.061,6232.653Zm3.229-12.576a10.725,10.725,0,0,0-1.524,4.668,17.114,17.114,0,0,0-.169,2.281,3.755,3.755,0,0,0,.625,2.422,2.424,2.424,0,0,0,1.968.746,3.347,3.347,0,0,0,2.867-1.394,10.377,10.377,0,0,0,1.477-4.512,18.369,18.369,0,0,0,.168-2.375,4.129,4.129,0,0,0-.612-2.52,2.255,2.255,0,0,0-1.907-.792A3.387,3.387,0,0,0,1013.29,6220.078Zm56.221,13.236a1.259,1.259,0,0,1-.517-.084.556.556,0,0,1-.276-.324l-2.352-5.087q-.1-.24-.216-.24c-.08,0-.193.1-.337.288l-3.791,5.136a.588.588,0,0,1-.337.263,2.6,2.6,0,0,1-.576.048h-3.216c-.351,0-.528-.111-.528-.336a1.687,1.687,0,0,1,.409-.865l5.952-7.486a1.072,1.072,0,0,0,.288-.553.612.612,0,0,0-.049-.265l-3.937-7.751a.615.615,0,0,1-.072-.263c0-.193.136-.288.409-.288h4.032a.962.962,0,0,1,.5.1.855.855,0,0,1,.265.359l1.99,4.369q.073.193.193.192c.08,0,.168-.064.265-.192l3.287-4.488a.823.823,0,0,1,.324-.276,1.579,1.579,0,0,1,.517-.059h3.528c.224,0,.337.1.337.288a.894.894,0,0,1-.193.527l-5.736,7.152a1.1,1.1,0,0,0-.288.5.731.731,0,0,0,.1.288l4.176,8.064a2.092,2.092,0,0,1,.263.719.21.21,0,0,1-.13.205,1.1,1.1,0,0,1-.421.06Zm-26.664,0c-.368,0-.553-.161-.553-.48l.024-.191,2.377-16.752a.7.7,0,0,1,.108-.324.418.418,0,0,1,.276-.059H1057.7c.224,0,.335.126.335.383a.631.631,0,0,1-.023.191l-.36,2.5a.627.627,0,0,1-.155.36.607.607,0,0,1-.4.1h-7.632a.481.481,0,0,0-.313.083.5.5,0,0,0-.119.324l-.407,2.856-.025.144a.17.17,0,0,0,.061.157.489.489,0,0,0,.227.036h4.871q.216,0,.277.083a.464.464,0,0,1,.036.3l-.409,2.784a.373.373,0,0,1-.085.24.493.493,0,0,1-.276.048h-4.944a.269.269,0,0,0-.229.083.864.864,0,0,0-.108.3l-.432,3.024v.1q0,.193.169.193h8.16a.339.339,0,0,1,.286.1.437.437,0,0,1,.025.336l-.36,2.736a.555.555,0,0,1-.131.288.573.573,0,0,1-.348.072Zm-7.537,0c-.319,0-.512-.192-.575-.576l-1.513-6.456a.361.361,0,0,0-.12-.191.5.5,0,0,0-.263-.048h-1.968a.369.369,0,0,0-.24.06.362.362,0,0,0-.1.229l-.936,6.48a.481.481,0,0,1-.191.409,1.248,1.248,0,0,1-.576.1h-3.577c-.384,0-.543-.226-.479-.672l2.375-16.752a.7.7,0,0,1,.108-.324.421.421,0,0,1,.277-.059h7.751a8.387,8.387,0,0,1,4.788,1.163,3.771,3.771,0,0,1,1.691,3.3,5.553,5.553,0,0,1-1.044,3.264,5.659,5.659,0,0,1-2.723,2.112.764.764,0,0,0-.337.192.253.253,0,0,0-.023.24l2.159,6.937a1.27,1.27,0,0,1,.048.263c0,.226-.144.336-.432.336Zm-3.649-14.521a.934.934,0,0,0-.119.36l-.479,3.337-.025.119c0,.1.02.157.061.18a.4.4,0,0,0,.2.036h2.665a2.793,2.793,0,0,0,1.992-.72,2.392,2.392,0,0,0,.767-1.824,1.367,1.367,0,0,0-.551-1.187,2.5,2.5,0,0,0-1.489-.4H1031.9A.282.282,0,0,0,1031.661,6218.793Zm-32.735,14.521a.661.661,0,0,1-.479-.144.628.628,0,0,1-.1-.528l1.585-11.113v-.1c0-.048-.017-.072-.049-.072s-.088.072-.168.216L994.271,6233a.591.591,0,0,1-.205.252.693.693,0,0,1-.324.06h-2.278a.441.441,0,0,1-.324-.108.858.858,0,0,1-.18-.4l-2.21-11.161c-.047-.16-.1-.239-.168-.239a.106.106,0,0,0-.085.06.26.26,0,0,0-.036.133l-1.607,11.352a.378.378,0,0,1-.133.288.584.584,0,0,1-.323.072H983.35a.471.471,0,0,1-.3-.072.381.381,0,0,1-.083-.288l.047-.384,2.352-16.68a.738.738,0,0,1,.108-.324.477.477,0,0,1,.3-.059h5.905a.561.561,0,0,1,.575.5l1.824,8.76c0,.1.033.144.1.144s.121-.056.169-.169l4.128-8.711a.853.853,0,0,1,.229-.419.525.525,0,0,1,.346-.108h6.242c.24,0,.335.119.288.36l-2.377,16.943a.62.62,0,0,1-.168.419.991.991,0,0,1-.5.084Z"/>
    </symbol>

    <symbol id="flo" viewBox="0 0 93.566 40" width="93.566" height="40">
        <path id="Rounded_Rectangle_1_" data-name="Rounded Rectangle 1 " d="M26.486,23.34a8.083,8.083,0,0,1-7.9,6.414,8,8,0,0,1-1.417-.128,8,8,0,0,1-1.417.128,8.083,8.083,0,0,1-7.9-6.414A8.081,8.081,0,0,1,.386,15.28V15A8.082,8.082,0,0,1,7.771,6.941,8.051,8.051,0,0,1,17.166.2a8.051,8.051,0,0,1,9.395,6.746A8.083,8.083,0,0,1,33.946,15v.284A8.081,8.081,0,0,1,26.486,23.34Zm-5.958-7.053a8.389,8.389,0,0,1-1.25.2q-.052.348-.133.685a6.673,6.673,0,0,0,3.548,4.3v-.272A6.638,6.638,0,0,0,20.529,16.286Zm2.155-7.471A6.672,6.672,0,0,0,19.147,13.1c.018.076.042.151.058.228a8.341,8.341,0,0,1,1.324.205A6.636,6.636,0,0,0,22.684,8.816Zm-5.517,19.6a6.666,6.666,0,0,0,5.352-5.07,8.04,8.04,0,0,1-5.356-2.517,8.036,8.036,0,0,1-5.348,2.517A6.666,6.666,0,0,0,17.166,28.415ZM7.706,9.03a6.658,6.658,0,0,0-3.351,5.782v.653a6.658,6.658,0,0,0,3.324,5.767,8.072,8.072,0,0,1,3.232-6.322A8.072,8.072,0,0,1,7.706,9.03Zm3.933,12.437a6.663,6.663,0,0,0,3.542-4.313c-.053-.222-.094-.447-.128-.675a7.942,7.942,0,0,1-1.248-.192,6.638,6.638,0,0,0-2.165,4.908ZM13.8,13.535a8.173,8.173,0,0,1,1.323-.2c.015-.07.037-.137.053-.207a6.663,6.663,0,0,0-3.531-4.311A6.636,6.636,0,0,0,13.8,13.535ZM17.166,1.406a6.665,6.665,0,0,0-5.441,5.522,8.053,8.053,0,0,1,5.439,2.519,8.039,8.039,0,0,1,5.442-2.519A6.665,6.665,0,0,0,17.166,1.406ZM29.978,14.812A6.658,6.658,0,0,0,26.627,9.03a8.071,8.071,0,0,1-3.206,5.881,8.072,8.072,0,0,1,3.232,6.322,6.658,6.658,0,0,0,3.324-5.767Z"/>
        <text id="FLO-2" data-name="FLO" transform="translate(67.953 23.996)" font-size="30" font-family="SegoeUI, Segoe UI"><tspan x="-25.181" y="0">FLO</tspan></text>
        <path id="Color_Overlay" data-name="Color Overlay" d="M1193.166,6239.625a7.976,7.976,0,0,1-1.417.128,74.478,74.478,0,0,1-15.362-14.474V6225a91.282,91.282,0,0,1,15.362-14.929,7.974,7.974,0,0,0,2.834,0A91.37,91.37,0,0,1,1209.947,6225v.283a74.431,74.431,0,0,1-15.364,14.474A7.977,7.977,0,0,1,1193.166,6239.625Zm-5.351-6.281a5.36,5.36,0,0,0,10.7,0,6.949,6.949,0,0,0-10.7,0Zm7.464-6.859c-.033.233-.078.46-.133.686a6.678,6.678,0,0,0,3.549,4.3v-.272a6.641,6.641,0,0,0-2.164-4.908A8.2,8.2,0,0,1,1195.278,6226.486Zm-7.64,4.708v.272a6.662,6.662,0,0,0,3.542-4.312c-.052-.222-.094-.448-.128-.676a7.969,7.969,0,0,1-1.248-.191A6.636,6.636,0,0,0,1187.638,6231.194Zm11.782-6.284a8.074,8.074,0,0,1,3.234,6.322,6.658,6.658,0,0,0,3.323-5.767v-.653a6.656,6.656,0,0,0-3.351-5.781A8.066,8.066,0,0,1,1199.42,6224.91Zm-19.066-.1v.653a6.656,6.656,0,0,0,3.324,5.767,7.387,7.387,0,0,0,.027-12.2A6.659,6.659,0,0,0,1180.355,6224.812Zm14.792-1.71c.019.077.042.15.058.229a8.239,8.239,0,0,1,1.325.205,2.8,2.8,0,1,0-1.383-.434Zm-5.343.434a8.138,8.138,0,0,1,1.323-.2c.014-.071.036-.136.052-.207a2.813,2.813,0,1,0-1.375.409Zm-2.078-6.608a7.134,7.134,0,0,0,10.882,0,5.442,5.442,0,1,0-10.882,0Zm62.855,14.476a10.92,10.92,0,0,1-2.687-7.661,11.574,11.574,0,0,1,2.739-8.087,9.571,9.571,0,0,1,7.456-3.018,9.02,9.02,0,0,1,7.011,2.93,10.967,10.967,0,0,1,2.657,7.661,11.606,11.606,0,0,1-2.725,8.13,9.391,9.391,0,0,1-7.294,2.989A9.228,9.228,0,0,1,1250.581,6231.4Zm1.956-14.15a10.622,10.622,0,0,0-.052,12.517,6.574,6.574,0,0,0,5.252,2.366,6.894,6.894,0,0,0,5.45-2.257,9.216,9.216,0,0,0,1.992-6.312,9.638,9.638,0,0,0-1.934-6.432,6.628,6.628,0,0,0-5.332-2.271A6.778,6.778,0,0,0,1252.537,6217.252ZM1236.175,6234V6212.99h2.46v18.779h8.438V6234Zm-14.65,0V6212.99h10.664v2.227h-8.2v7.265h7.587v2.213h-7.587v9.3Z"/>
    </symbol>

    <symbol id="box" viewBox="0 0 62.048 42.187" width="62.048" height="42.187">
        <text id="BLACK" transform="translate(17.902 8.746)" font-size="13" font-family="SegoeUI, Segoe UI" letter-spacing="-0.05em"><tspan x="-17.537" y="0">BLACK</tspan></text>
        <rect id="Shape_29" data-name="Shape 29" width="9.647" height="9.566" transform="translate(52.303 20.4)"/>
        <text id="BOX" transform="translate(23.273 29.933)" font-size="26" font-family="SegoeUI, Segoe UI" letter-spacing="-0.075em"><tspan x="-22.654" y="0">BOX</tspan></text>
        <path id="Color_Overlay" data-name="Color Overlay" d="M1392.1,6237.686a9.46,9.46,0,0,1-2.33-6.639,10.033,10.033,0,0,1,2.374-7.008,8.3,8.3,0,0,1,6.462-2.615,7.811,7.811,0,0,1,6.075,2.539,9.5,9.5,0,0,1,2.3,6.64,10.053,10.053,0,0,1-2.362,7.046,8.14,8.14,0,0,1-6.322,2.59A7.989,7.989,0,0,1,1392.1,6237.686Zm1.694-12.264a9.208,9.208,0,0,0-.045,10.849,5.7,5.7,0,0,0,4.551,2.051,5.978,5.978,0,0,0,4.723-1.956,7.984,7.984,0,0,0,1.726-5.47,8.343,8.343,0,0,0-1.676-5.574,5.743,5.743,0,0,0-4.62-1.968A5.867,5.867,0,0,0,1393.792,6225.421Zm33.511,14.544V6230.4h9.647v9.565Zm-9.36-.033-4.189-6.969a6.359,6.359,0,0,1-.42-.9h-.05c-.084.2-.229.495-.432.9l-4.316,6.969h-2.614l6.092-9.152-5.61-9.052h2.614l3.719,6.4a12.623,12.623,0,0,1,.648,1.27h.05a14.117,14.117,0,0,1,.711-1.32l3.873-6.348h2.451l-5.727,9.026,5.8,9.179Zm-39.935,0v-18.2h5.179a5.668,5.668,0,0,1,3.745,1.154,3.737,3.737,0,0,1,1.385,3.009,4.433,4.433,0,0,1-.838,2.692,4.521,4.521,0,0,1-2.312,1.625v.05a4.631,4.631,0,0,1,2.946,1.391,4.277,4.277,0,0,1,1.1,3.052,4.76,4.76,0,0,1-1.676,3.784,6.235,6.235,0,0,1-4.227,1.447Zm2.131-1.93h2.9a4.342,4.342,0,0,0,2.913-.888,3.05,3.05,0,0,0,1.034-2.438q0-3.223-4.391-3.225h-2.451Zm0-8.468h2.185a4.15,4.15,0,0,0,2.755-.844,2.943,2.943,0,0,0,1-2.38q0-2.654-3.491-2.653h-2.451Zm17.124-11.887a4.621,4.621,0,0,1-1.167-3.284,4.832,4.832,0,0,1,1.314-3.528,4.456,4.456,0,0,1,3.333-1.345,5.356,5.356,0,0,1,2.146.375V6211a4.359,4.359,0,0,0-2.158-.545,3.306,3.306,0,0,0-2.542,1.048,3.94,3.94,0,0,0-.976,2.8,3.758,3.758,0,0,0,.911,2.651,3.1,3.1,0,0,0,2.39.987,4.492,4.492,0,0,0,2.374-.609v1.035a5.342,5.342,0,0,1-2.514.533A4.066,4.066,0,0,1,1397.263,6217.649Zm11.678,1.1-3.516-4.163a2.517,2.517,0,0,1-.241-.318h-.027v4.48h-1.066v-9.1h1.066v4.279h.027a2.428,2.428,0,0,1,.241-.312l3.4-3.967h1.326l-3.9,4.368,4.177,4.734Zm-13.865,0-.965-2.551h-3.859l-.908,2.551h-1.187l3.491-9.1h1.106l3.5,9.1Zm-3.054-7.387-1.414,3.878h3.154l-1.428-3.878a3.7,3.7,0,0,1-.139-.611h-.025A3.288,3.288,0,0,1,1392.022,6211.358Zm-8.662,7.387v-9.1h1.067v8.138h3.657v.964Zm-6.8,0v-9.1h2.59a2.827,2.827,0,0,1,1.871.578,1.864,1.864,0,0,1,.692,1.5,2.218,2.218,0,0,1-.418,1.347,2.262,2.262,0,0,1-1.156.812v.026a2.315,2.315,0,0,1,1.472.7,2.139,2.139,0,0,1,.553,1.527,2.382,2.382,0,0,1-.838,1.891,3.121,3.121,0,0,1-2.114.723Zm1.067-.964h1.447a2.168,2.168,0,0,0,1.457-.443,1.521,1.521,0,0,0,.517-1.22q0-1.612-2.2-1.612h-1.225Zm0-4.233h1.092a2.08,2.08,0,0,0,1.378-.421,1.475,1.475,0,0,0,.5-1.191q0-1.325-1.746-1.327h-1.225Z"/>
    </symbol>

    <symbol id="novella" viewBox="0 0 110.585 50.405" width="110.585" height="50.405">
        <text id="novella-2" data-name="novella" transform="translate(51.715 23.841)" font-size="34" font-family="SegoeUI, Segoe UI"><tspan x="-53.499" y="0">novella</tspan></text>
        <text id="HANDICRAFT" transform="translate(54.3 35.247)" font-size="9" font-family="JosefinSans-Light, Josefin Sans" font-weight="300" letter-spacing="0.6em"><tspan x="-53.442" y="0">HANDICRAFT</tspan></text>
        <path id="Color_Overlay" data-name="Color Overlay" d="M976.144,6325.4l-4.924-5.545.01,5.391H970.8v-6.524h.027l4.923,5.589-.01-5.454h.424v6.543Zm28.5-.513a3.058,3.058,0,0,1-1.148-1.17,3.268,3.268,0,0,1-.41-1.621,3.379,3.379,0,0,1,.422-1.683,3.162,3.162,0,0,1,2.8-1.629,3.3,3.3,0,0,1,1.746.486l-.189.4a2.9,2.9,0,0,0-1.548-.468,2.653,2.653,0,0,0-1.386.383,2.792,2.792,0,0,0-1.013,1.044,2.886,2.886,0,0,0-.373,1.444,2.971,2.971,0,0,0,.341,1.418,2.585,2.585,0,0,0,.973,1.021,2.768,2.768,0,0,0,1.457.378,2.866,2.866,0,0,0,1.557-.459l.206.388a3.5,3.5,0,0,1-.792.355,3.147,3.147,0,0,1-.945.14A3.3,3.3,0,0,1,1004.647,6324.887Zm45.27.358v-5.965h-1.864v-.424h4.186v.424h-1.881v5.965Zm-11.952,0v-6.389h3.581v.424h-3.14v2.637h2.78v.414h-2.78v2.915Zm-7.371,0-.838-2.114h-2.816l-.846,2.114h-.441l2.7-6.669h.035l2.7,6.669Zm-3.492-2.527h2.492l-1.232-3.142Zm-8.406,2.527-1.675-2.718a2.491,2.491,0,0,1-.476.037h-.991v2.681h-.441v-6.389h1.459a2.443,2.443,0,0,1,.967.2,1.775,1.775,0,0,1,.756.6,1.673,1.673,0,0,1,.294,1.008,2.085,2.085,0,0,1-.271,1.057,1.568,1.568,0,0,1-.837.689l1.729,2.833Zm-3.142-3.1h.964a1.569,1.569,0,0,0,1.246-.433,1.52,1.52,0,0,0,.373-1.025,1.4,1.4,0,0,0-.184-.7,1.33,1.33,0,0,0-.527-.513,1.6,1.6,0,0,0-.792-.189h-1.079Zm-19.935,3.1v-6.389h.441v6.389Zm-12.023,0v-6.389h1.575a3.631,3.631,0,0,1,1.94.478,2.9,2.9,0,0,1,1.124,1.214,3.5,3.5,0,0,1,.356,1.54,3.187,3.187,0,0,1-.427,1.656,2.968,2.968,0,0,1-1.143,1.111,3.171,3.171,0,0,1-1.543.39Zm.441-.422h1.322a2.958,2.958,0,0,0,1.408-.337,2.521,2.521,0,0,0,1-.963,2.828,2.828,0,0,0,.37-1.464,2.9,2.9,0,0,0-.338-1.381,2.528,2.528,0,0,0-.994-1.013,3.12,3.12,0,0,0-1.575-.378h-1.2Zm-20.61.422-.838-2.114h-2.816l-.846,2.114h-.441l2.7-6.669h.036l2.7,6.669Zm-3.492-2.527h2.492l-1.232-3.142Zm-8.766,2.527v-3h-3.853v3h-.44v-6.389h.44v2.97h3.853v-2.97h.441v6.389Zm84.677-12.35a4.655,4.655,0,0,1-1.437-3.57q0-4.762,5.612-5.545l5.1-.713q0-4.334-3.5-4.334a8.364,8.364,0,0,0-5.545,2.092v-2.789a10.537,10.537,0,0,1,5.777-1.594q5.993,0,5.993,6.342v11.057h-2.723v-2.656h-.067a5.7,5.7,0,0,1-5.229,3.054A5.582,5.582,0,0,1,1035.846,6312.9Zm5.17-7.09a6.685,6.685,0,0,0-2.856.938,2.71,2.71,0,0,0-.962,2.383,2.593,2.593,0,0,0,.887,2.034,3.436,3.436,0,0,0,2.367.789,4.366,4.366,0,0,0,3.345-1.421,5.069,5.069,0,0,0,1.319-3.594v-1.692Zm-38.7,6.118a9.476,9.476,0,0,1-2.059-6.515,9.3,9.3,0,0,1,2.249-6.467,7.21,7.21,0,0,1,5.586-2.5,6.39,6.39,0,0,1,5.164,2.159,9,9,0,0,1,1.826,5.993v1.427h-12a6.359,6.359,0,0,0,1.527,4.383,5.261,5.261,0,0,0,4.018,1.544,8.35,8.35,0,0,0,5.278-1.892v2.556a9.867,9.867,0,0,1-5.926,1.627A7.189,7.189,0,0,1,1002.318,6311.924Zm2.457-11.812a6.249,6.249,0,0,0-1.66,3.6h9.18a5.53,5.53,0,0,0-1.138-3.668,3.872,3.872,0,0,0-3.111-1.313A4.4,4.4,0,0,0,1004.776,6300.111ZM966.3,6311.857a8.814,8.814,0,0,1-2.251-6.316,9.2,9.2,0,0,1,2.342-6.691,8.413,8.413,0,0,1,6.324-2.407,7.625,7.625,0,0,1,5.935,2.341,9.28,9.28,0,0,1,2.134,6.491,9.128,9.128,0,0,1-2.3,6.515,8.051,8.051,0,0,1-6.167,2.449A7.878,7.878,0,0,1,966.3,6311.857Zm2.065-11.339a7.335,7.335,0,0,0-1.527,4.924,6.93,6.93,0,0,0,1.545,4.764,5.245,5.245,0,0,0,4.134,1.743,4.985,4.985,0,0,0,4.059-1.71,7.422,7.422,0,0,0,1.419-4.865,7.547,7.547,0,0,0-1.419-4.913,4.958,4.958,0,0,0-4.059-1.728A5.182,5.182,0,0,0,968.367,6300.518Zm59.07,13.323v-25.167h2.723v25.167Zm-8.236,0v-25.167h2.724v25.167Zm-30.148,0-6.442-17H985.6l4.318,12.351a11.159,11.159,0,0,1,.6,2.375h.067a11.167,11.167,0,0,1,.532-2.306l4.515-12.419H998.5l-6.772,17Zm-31.692,0v-9.7q0-5.41-3.951-5.412a4.29,4.29,0,0,0-3.38,1.537,5.7,5.7,0,0,0-1.335,3.875v9.7h-2.724v-17H948.7v2.822h.065a6.137,6.137,0,0,1,5.578-3.221,5.2,5.2,0,0,1,4.267,1.8,8.025,8.025,0,0,1,1.478,5.2v10.393Z"/>
    </symbol>

    <symbol id="trance" viewBox="0 0 124 29" width="124" height="29">
        <text id="tranceMILD" transform="translate(60.768 19)" font-size="29" font-family="AlegreyaSans-Regular, Alegreya Sans" letter-spacing="-0.05em"><tspan x="-61.567" y="0">trance</tspan><tspan y="0" font-family="AlegreyaSans-Black, Alegreya Sans" font-weight="800">MILD</tspan></text>
        <path id="Color_Overlay" data-name="Color Overlay" d="M1255.79,6318l.29-5.509-.29-13.254,8.469-.116a8.549,8.549,0,0,1,6.365,2.249q2.219,2.247,2.218,6.48,0,5.019-2.581,7.714t-7.394,2.7Q1259.85,6318.261,1255.79,6318Zm5.8-14.238-.2,8.149.059,1.8a21.7,21.7,0,0,0,2.523.231,2.321,2.321,0,0,0,2.073-1.087,6.794,6.794,0,0,0,.71-3.582,15.166,15.166,0,0,0-.289-3.335,3.175,3.175,0,0,0-.929-1.753,2.661,2.661,0,0,0-1.768-.538A20.137,20.137,0,0,0,1261.59,6303.762Zm-58.232,12.658a7.186,7.186,0,0,1-1.624-4.974,7.505,7.505,0,0,1,1.624-5.074,5.483,5.483,0,0,1,4.38-1.885,4.772,4.772,0,0,1,3.6,1.319,5.061,5.061,0,0,1,1.275,3.669,8.954,8.954,0,0,1-.116,1.478l-.29.29-8.323.029v.059a5.646,5.646,0,0,0,1.1,3.741,3.874,3.874,0,0,0,3.133,1.305,6.494,6.494,0,0,0,2.03-.333,6.738,6.738,0,0,0,1.855-.942l.233.173-.349,1.972a9.228,9.228,0,0,1-4.059.986A5.692,5.692,0,0,1,1203.358,6316.42Zm1.958-9.368a4.8,4.8,0,0,0-1.291,2.655l6.409-.118.057-.4a3.309,3.309,0,0,0-.71-2.277,2.6,2.6,0,0,0-2.044-.8A3.338,3.338,0,0,0,1205.316,6307.052Zm-11.79,9.368a7.549,7.549,0,0,1-1.508-4.974,7.643,7.643,0,0,1,1.581-5.09,5.344,5.344,0,0,1,4.307-1.87,8.6,8.6,0,0,1,1.871.217,7.8,7.8,0,0,1,1.7.566l-.406,2-.26.085a5.445,5.445,0,0,0-2.987-.985,3.125,3.125,0,0,0-2.669,1.3,7.4,7.4,0,0,0,.044,7.353,3.257,3.257,0,0,0,2.769,1.348,5.651,5.651,0,0,0,1.64-.26,6.945,6.945,0,0,0,1.609-.726l.26.146-.26,1.943a8.97,8.97,0,0,1-3.538.754A5.105,5.105,0,0,1,1193.526,6316.42Zm-25.593.812a3.381,3.381,0,0,1-1.086-2.654,2.917,2.917,0,0,1,.68-2.03,3.845,3.845,0,0,1,2.015-1.073l4.7-1.1.03-1.886a2.387,2.387,0,0,0-.595-1.739,2.265,2.265,0,0,0-1.7-.609,4.6,4.6,0,0,0-1.973.464,9.484,9.484,0,0,0-2.117,1.45l-.231-.116-.29-1.652a8.2,8.2,0,0,1,4.958-1.8,4.431,4.431,0,0,1,2.973.928,3.178,3.178,0,0,1,1.088,2.551q0,.494-.174,3.568t-.174,3.6a1.439,1.439,0,0,0,.2.885.861.861,0,0,0,.7.246,3.27,3.27,0,0,0,.986-.174l.232.2-.232,1.305a4.121,4.121,0,0,1-1.654.58,2.232,2.232,0,0,1-1.435-.637,2.174,2.174,0,0,1-.565-1.508h-.2a8.87,8.87,0,0,1-3.1,2.174A4.4,4.4,0,0,1,1167.934,6317.232Zm2.074-4.365a1.728,1.728,0,0,0-.84.479,1.37,1.37,0,0,0-.262.913,2.016,2.016,0,0,0,.537,1.494,1.934,1.934,0,0,0,1.435.536q1.594,0,3.247-2.058l.087-2.378Zm-16.472,4.089a4.074,4.074,0,0,1-.725-2.61l.087-2.058-.029-6h-1.828l-.116-.175.146-1.363h1.768V6302.6l2-.871.231.2-.057,2.813h3.943l.116.174-.144,1.364h-3.915l-.146,7.858a2.287,2.287,0,0,0,.406,1.624,1.876,1.876,0,0,0,1.422.465,4.612,4.612,0,0,0,2.087-.581l.262.175-.232,1.508a8.8,8.8,0,0,1-2.9.84A3.877,3.877,0,0,1,1153.536,6316.956Zm90.452,1.043.29-5.509-.29-13.254h5.916l-.32,12.674.059,1.333h5.539l.319.406-.347,4.35Zm-7.889,0,.29-5.509-.29-13.254h5.916l-.319,12.674.231,6.089Zm-6.322,0-.144-5.683-.319-4.727h-.349l-3.016,8.642h-4.38l-2.493-8.642h-.349l-.406,4.175-.29,6.235h-4.843l1.827-18.763h6.7l.55,2.668,1.654,6.815h.347l1.828-6.612.666-2.872h6.612l1.508,18.763Zm-41.933,0,.144-9.018a2.645,2.645,0,0,0-.55-1.857,2.149,2.149,0,0,0-1.711-.667,5.962,5.962,0,0,0-3.945,2.06v3.653l.116,5.829h-2.29l.144-5.626-.116-7.511,2.176-.2v1.942h.173a8.762,8.762,0,0,1,3.683-2.06,4.85,4.85,0,0,1,3.32,1.017,3.586,3.586,0,0,1,1.116,2.9l-.057,3.771.116,5.771Zm-27.521,0,.144-5.626-.116-7.511,2.176-.2-.03,2.726h.174a5.618,5.618,0,0,1,1.8-2.074,3.626,3.626,0,0,1,1.943-.623,5.438,5.438,0,0,1,.755.057v2.234l-.262.086a3.786,3.786,0,0,0-1.072-.145,2.481,2.481,0,0,0-1.755.769,8.335,8.335,0,0,0-1.581,2.45l-.029,2.029.146,5.829Z"/>
    </symbol>

    <symbol id="domo" viewBox="0 0 108.699 37" width="108.699" height="37">
        <path id="Shape_9_copy_2" data-name="Shape 9 copy 2" d="M17.25,10.848a5.082,5.082,0,1,1,5.118-5.081A5.1,5.1,0,0,1,17.25,10.848ZM5.118,23.646a5.082,5.082,0,1,1,5.118-5.082A5.1,5.1,0,0,1,5.118,23.646Zm0-12.8a5.082,5.082,0,1,1,5.118-5.081A5.1,5.1,0,0,1,5.118,10.848ZM17.25,13.483a5.082,5.082,0,1,1-5.118,5.081A5.1,5.1,0,0,1,17.25,13.483Z"/>
        <rect id="Shape_10" data-name="Shape 10" width="2.024" height="23.335" transform="translate(26.3 0.432)"/>
        <text id="DOMO-2" data-name="DOMO" transform="translate(64.698 22.367)" font-size="28" font-family="SegoeUI, Segoe UI"><tspan x="-43.497" y="0">DOMO</tspan></text>
        <path id="Color_Overlay" data-name="Color Overlay" d="M1401.3,6319.768v-1.4h-2.528v-19.605h2.528v-2.33h2.024v2.33h.863q10.361,0,10.362,9.556a9.629,9.629,0,0,1-2.877,7.294,10.677,10.677,0,0,1-7.7,2.755h-.644v1.4Zm2.024-3.478h.671a8.3,8.3,0,0,0,6-2.065,7.74,7.74,0,0,0,2.146-5.851q0-7.534-8.011-7.534h-.807Zm-2.255,0h.232v-15.45h-.232Zm-13.937-1.726a5.118,5.118,0,1,1,5.118,5.083A5.1,5.1,0,0,1,1387.132,6314.564Zm-12.132,0a5.118,5.118,0,1,1,5.118,5.083A5.1,5.1,0,0,1,1375,6314.564Zm90.881,1.384a10.193,10.193,0,0,1-2.509-7.151,10.8,10.8,0,0,1,2.557-7.548,8.93,8.93,0,0,1,6.958-2.815,8.415,8.415,0,0,1,6.542,2.734,10.23,10.23,0,0,1,2.481,7.15,10.833,10.833,0,0,1-2.542,7.588,8.761,8.761,0,0,1-6.807,2.79A8.609,8.609,0,0,1,1465.881,6315.948Zm1.824-13.208a9.916,9.916,0,0,0-.048,11.683,6.128,6.128,0,0,0,4.9,2.208,6.436,6.436,0,0,0,5.085-2.1,8.6,8.6,0,0,0,1.86-5.893,8.991,8.991,0,0,0-1.8-6,6.191,6.191,0,0,0-4.977-2.121A6.327,6.327,0,0,0,1467.7,6302.74Zm-48.076,13.208a10.193,10.193,0,0,1-2.509-7.151,10.8,10.8,0,0,1,2.557-7.548,8.932,8.932,0,0,1,6.958-2.815,8.415,8.415,0,0,1,6.542,2.734,10.231,10.231,0,0,1,2.482,7.15,10.841,10.841,0,0,1-2.542,7.588,8.764,8.764,0,0,1-6.809,2.79A8.609,8.609,0,0,1,1419.628,6315.948Zm1.826-13.208a9.909,9.909,0,0,0-.048,11.683,6.123,6.123,0,0,0,4.9,2.208,6.44,6.44,0,0,0,5.087-2.1,8.608,8.608,0,0,0,1.859-5.893,8.99,8.99,0,0,0-1.8-6,6.188,6.188,0,0,0-4.977-2.121A6.322,6.322,0,0,0,1421.454,6302.74Zm35.764,15.627v-13.152q0-1.56.192-3.814h-.054a12.053,12.053,0,0,1-.588,1.9l-6.7,15.066h-1.121l-6.685-14.957a11.657,11.657,0,0,1-.588-2.01h-.056q.109,1.176.109,3.842v13.125h-2.214v-19.605h3.036l6.014,13.672a17.46,17.46,0,0,1,.9,2.352h.083q.588-1.613.942-2.408l6.14-13.616h2.871v19.605Zm-70.086-16.6a5.118,5.118,0,1,1,5.118,5.082A5.1,5.1,0,0,1,1387.132,6301.766Zm-12.132,0a5.118,5.118,0,1,1,5.118,5.082A5.1,5.1,0,0,1,1375,6301.766Z"/>
    </symbol>

    <symbol id="review" viewBox="0 0 55 30" width="55" height="30">
         <text id="_" data-name=",," class="cls-1" font-size = '120px' opacity = '0.14' font-family= 'Hind' font-weight = '600' transform="matrix(1, 0, 0, -1, 1.111, 15.294)">,,</text>
    </symbol>

    <symbol id="phone" viewBox="0 0 18 18" width="18" height="18">
        <path d="M 3.667969 11.964844 C 5.441406 14.085938 7.582031 15.757812 10.019531 16.941406 C 10.949219 17.378906 12.191406 17.902344 13.574219 17.992188 C 13.660156 17.996094 13.742188 18 13.828125 18 C 14.757812 18 15.503906 17.679688 16.109375 17.019531 C 16.113281 17.015625 16.121094 17.007812 16.125 17 C 16.339844 16.738281 16.585938 16.503906 16.84375 16.253906 C 17.019531 16.085938 17.199219 15.910156 17.371094 15.730469 C 18.164062 14.902344 18.164062 13.851562 17.363281 13.050781 L 15.121094 10.808594 C 14.742188 10.414062 14.285156 10.203125 13.808594 10.203125 C 13.332031 10.203125 12.871094 10.414062 12.480469 10.804688 L 11.144531 12.140625 C 11.023438 12.070312 10.894531 12.007812 10.777344 11.945312 C 10.628906 11.871094 10.488281 11.800781 10.367188 11.722656 C 9.152344 10.949219 8.046875 9.945312 6.992188 8.648438 C 6.457031 7.972656 6.101562 7.40625 5.851562 6.828125 C 6.199219 6.511719 6.527344 6.179688 6.84375 5.855469 C 6.957031 5.738281 7.074219 5.625 7.1875 5.507812 C 7.589844 5.105469 7.808594 4.640625 7.808594 4.167969 C 7.808594 3.691406 7.59375 3.226562 7.1875 2.824219 L 6.078125 1.710938 C 5.945312 1.582031 5.824219 1.453125 5.695312 1.324219 C 5.449219 1.070312 5.191406 0.808594 4.941406 0.574219 C 4.554688 0.199219 4.105469 0 3.625 0 C 3.152344 0 2.699219 0.199219 2.300781 0.578125 L 0.902344 1.972656 C 0.398438 2.480469 0.109375 3.097656 0.0507812 3.808594 C -0.0195312 4.699219 0.144531 5.648438 0.570312 6.792969 C 1.222656 8.5625 2.207031 10.207031 3.667969 11.964844 Z M 0.960938 3.886719 C 1.003906 3.390625 1.195312 2.976562 1.554688 2.617188 L 2.941406 1.230469 C 3.15625 1.023438 3.394531 0.914062 3.625 0.914062 C 3.855469 0.914062 4.085938 1.023438 4.296875 1.238281 C 4.546875 1.46875 4.78125 1.710938 5.035156 1.96875 C 5.164062 2.101562 5.292969 2.230469 5.425781 2.363281 L 6.535156 3.476562 C 6.765625 3.707031 6.886719 3.941406 6.886719 4.171875 C 6.886719 4.40625 6.765625 4.640625 6.535156 4.871094 C 6.421875 4.988281 6.304688 5.105469 6.1875 5.222656 C 5.84375 5.574219 5.519531 5.902344 5.160156 6.222656 C 5.152344 6.230469 5.148438 6.234375 5.140625 6.238281 C 4.832031 6.550781 4.878906 6.84375 4.953125 7.066406 C 4.957031 7.078125 4.960938 7.085938 4.964844 7.097656 C 5.253906 7.789062 5.652344 8.445312 6.273438 9.226562 C 7.394531 10.609375 8.574219 11.679688 9.871094 12.503906 C 10.03125 12.605469 10.203125 12.6875 10.363281 12.769531 C 10.511719 12.84375 10.648438 12.917969 10.773438 12.996094 C 10.789062 13.003906 10.800781 13.007812 10.8125 13.015625 C 10.9375 13.082031 11.054688 13.109375 11.175781 13.109375 C 11.472656 13.109375 11.667969 12.921875 11.730469 12.855469 L 13.125 11.460938 C 13.34375 11.246094 13.578125 11.128906 13.808594 11.128906 C 14.09375 11.128906 14.324219 11.304688 14.46875 11.460938 L 16.71875 13.707031 C 17.164062 14.15625 17.164062 14.640625 16.707031 15.113281 C 16.550781 15.28125 16.386719 15.441406 16.210938 15.609375 C 15.949219 15.863281 15.679688 16.125 15.429688 16.417969 C 15.003906 16.882812 14.492188 17.097656 13.832031 17.097656 C 13.769531 17.097656 13.699219 17.09375 13.636719 17.089844 C 12.414062 17.011719 11.277344 16.535156 10.421875 16.128906 C 8.101562 15.003906 6.066406 13.414062 4.375 11.390625 C 2.984375 9.714844 2.050781 8.15625 1.429688 6.484375 C 1.046875 5.460938 0.898438 4.636719 0.960938 3.886719 Z M 0.960938 3.886719 "/>
    </symbol>

    <symbol id="telephone" viewBox="0 0 30 30" width="30" height="30">
        <path d="M 6.113281 19.941406 C 9.070312 23.480469 12.632812 26.265625 16.699219 28.234375 C 18.246094 28.96875 20.316406 29.839844 22.625 29.988281 C 22.765625 29.992188 22.902344 30 23.046875 30 C 24.59375 30 25.835938 29.464844 26.851562 28.363281 C 26.855469 28.359375 26.871094 28.347656 26.875 28.335938 C 27.234375 27.898438 27.644531 27.507812 28.074219 27.089844 C 28.367188 26.8125 28.664062 26.519531 28.953125 26.21875 C 30.277344 24.839844 30.277344 23.085938 28.9375 21.75 L 25.203125 18.015625 C 24.570312 17.355469 23.8125 17.007812 23.015625 17.007812 C 22.21875 17.007812 21.453125 17.355469 20.800781 18.007812 L 18.578125 20.234375 C 18.371094 20.117188 18.160156 20.011719 17.960938 19.910156 C 17.710938 19.785156 17.484375 19.667969 17.277344 19.539062 C 15.25 18.25 13.410156 16.574219 11.652344 14.414062 C 10.761719 13.289062 10.167969 12.34375 9.75 11.382812 C 10.332031 10.855469 10.882812 10.300781 11.410156 9.757812 C 11.597656 9.566406 11.789062 9.375 11.980469 9.179688 C 12.652344 8.511719 13.011719 7.734375 13.011719 6.945312 C 13.011719 6.152344 12.660156 5.378906 11.980469 4.707031 L 10.128906 2.851562 C 9.910156 2.636719 9.707031 2.425781 9.496094 2.207031 C 9.085938 1.785156 8.65625 1.347656 8.234375 0.957031 C 7.59375 0.328125 6.839844 0 6.042969 0 C 5.253906 0 4.496094 0.328125 3.832031 0.964844 L 1.507812 3.289062 C 0.660156 4.132812 0.183594 5.160156 0.0820312 6.347656 C -0.0351562 7.832031 0.238281 9.410156 0.949219 11.320312 C 2.035156 14.273438 3.675781 17.015625 6.113281 19.941406 Z M 1.601562 6.476562 C 1.675781 5.652344 1.992188 4.960938 2.589844 4.363281 L 4.902344 2.050781 C 5.261719 1.703125 5.660156 1.523438 6.042969 1.523438 C 6.425781 1.523438 6.808594 1.703125 7.164062 2.0625 C 7.582031 2.449219 7.972656 2.851562 8.394531 3.28125 C 8.605469 3.5 8.824219 3.71875 9.039062 3.941406 L 10.894531 5.792969 C 11.277344 6.179688 11.476562 6.570312 11.476562 6.957031 C 11.476562 7.339844 11.277344 7.734375 10.894531 8.117188 C 10.699219 8.3125 10.507812 8.511719 10.316406 8.703125 C 9.738281 9.289062 9.195312 9.839844 8.597656 10.367188 C 8.585938 10.382812 8.582031 10.386719 8.570312 10.398438 C 8.050781 10.914062 8.132812 11.40625 8.257812 11.78125 C 8.265625 11.796875 8.269531 11.8125 8.277344 11.828125 C 8.753906 12.980469 9.421875 14.074219 10.457031 15.378906 C 12.324219 17.679688 14.289062 19.464844 16.449219 20.835938 C 16.71875 21.011719 17.003906 21.148438 17.269531 21.285156 C 17.519531 21.410156 17.75 21.527344 17.957031 21.65625 C 17.980469 21.671875 18 21.683594 18.023438 21.695312 C 18.230469 21.800781 18.425781 21.851562 18.625 21.851562 C 19.125 21.851562 19.445312 21.535156 19.554688 21.425781 L 21.878906 19.101562 C 22.238281 18.742188 22.628906 18.550781 23.015625 18.550781 C 23.488281 18.550781 23.875 18.839844 24.117188 19.101562 L 27.863281 22.84375 C 28.609375 23.589844 28.605469 24.398438 27.84375 25.1875 C 27.585938 25.46875 27.3125 25.734375 27.019531 26.015625 C 26.582031 26.4375 26.128906 26.875 25.71875 27.363281 C 25.003906 28.136719 24.152344 28.496094 23.050781 28.496094 C 22.945312 28.496094 22.835938 28.488281 22.730469 28.484375 C 20.691406 28.351562 18.792969 27.558594 17.371094 26.878906 C 13.503906 25.007812 10.109375 22.355469 7.292969 18.984375 C 4.976562 16.195312 3.414062 13.59375 2.382812 10.808594 C 1.742188 9.101562 1.5 7.726562 1.601562 6.476562 Z M 1.601562 6.476562 "/>
    </symbol>

     <symbol id="message" viewBox="0 0 30 30" width="30" height="30">
        <path d="M 15 24.667969 C 15.839844 24.667969 16.691406 24.613281 17.539062 24.5 C 19.09375 26.664062 21.527344 28.027344 24.15625 28.183594 C 24.171875 28.183594 24.1875 28.183594 24.207031 28.183594 C 24.535156 28.183594 24.835938 28 24.988281 27.703125 C 25.148438 27.394531 25.109375 27.019531 24.886719 26.75 C 24.003906 25.667969 23.382812 24.296875 23.101562 22.835938 C 26.964844 20.933594 30 17.5 30 13.242188 C 30 6.21875 22.308594 1.816406 15 1.816406 C 7.632812 1.816406 0 6.261719 0 13.242188 C 0 20.265625 7.691406 24.667969 15 24.667969 Z M 15 3.574219 C 21.300781 3.574219 28.242188 7.265625 28.242188 13.242188 C 28.242188 16.578125 25.765625 19.75 21.777344 21.515625 C 21.425781 21.671875 21.214844 22.042969 21.261719 22.425781 C 21.417969 23.710938 21.785156 24.929688 22.339844 26.035156 C 20.863281 25.5 19.570312 24.472656 18.703125 23.085938 C 18.515625 22.785156 18.167969 22.628906 17.820312 22.683594 C 16.882812 22.832031 15.933594 22.910156 15 22.910156 C 8.699219 22.910156 1.757812 19.21875 1.757812 13.242188 C 1.757812 7.359375 8.558594 3.574219 15 3.574219 Z M 15 3.574219 "/>
        <path d="M 7.96875 15.878906 C 9.421875 15.878906 10.605469 14.695312 10.605469 13.242188 C 10.605469 11.789062 9.421875 10.605469 7.96875 10.605469 C 6.515625 10.605469 5.332031 11.789062 5.332031 13.242188 C 5.332031 14.695312 6.515625 15.878906 7.96875 15.878906 Z M 7.96875 12.363281 C 8.453125 12.363281 8.847656 12.757812 8.847656 13.242188 C 8.847656 13.726562 8.453125 14.121094 7.96875 14.121094 C 7.484375 14.121094 7.089844 13.726562 7.089844 13.242188 C 7.089844 12.757812 7.484375 12.363281 7.96875 12.363281 Z M 7.96875 12.363281 "/>
        <path d="M 15 15.878906 C 16.453125 15.878906 17.636719 14.695312 17.636719 13.242188 C 17.636719 11.789062 16.453125 10.605469 15 10.605469 C 13.546875 10.605469 12.363281 11.789062 12.363281 13.242188 C 12.363281 14.695312 13.546875 15.878906 15 15.878906 Z M 15 12.363281 C 15.484375 12.363281 15.878906 12.757812 15.878906 13.242188 C 15.878906 13.726562 15.484375 14.121094 15 14.121094 C 14.515625 14.121094 14.121094 13.726562 14.121094 13.242188 C 14.121094 12.757812 14.515625 12.363281 15 12.363281 Z M 15 12.363281 "/>
        <path d="M 22.03125 15.878906 C 23.484375 15.878906 24.667969 14.695312 24.667969 13.242188 C 24.667969 11.789062 23.484375 10.605469 22.03125 10.605469 C 20.578125 10.605469 19.394531 11.789062 19.394531 13.242188 C 19.394531 14.695312 20.578125 15.878906 22.03125 15.878906 Z M 22.03125 12.363281 C 22.515625 12.363281 22.910156 12.757812 22.910156 13.242188 C 22.910156 13.726562 22.515625 14.121094 22.03125 14.121094 C 21.546875 14.121094 21.152344 13.726562 21.152344 13.242188 C 21.152344 12.757812 21.546875 12.363281 22.03125 12.363281 Z M 22.03125 12.363281 "/>
    </symbol>

</svg>