<svg xmlns="http://www.w3.org/2000/svg">
    <symbol id="facebook" viewBox="0 0 16 16" width="16" height="16">
        <path d="M 10.664062 2.65625 L 12.125 2.65625 L 12.125 0.113281 C 11.875 0.078125 11.007812 0 9.996094 0 C 7.890625 0 6.449219 1.324219 6.449219 3.757812 L 6.449219 6 L 4.125 6 L 4.125 8.84375 L 6.449219 8.84375 L 6.449219 16 L 9.296875 16 L 9.296875 8.84375 L 11.527344 8.84375 L 11.882812 6 L 9.296875 6 L 9.296875 4.042969 C 9.296875 3.21875 9.519531 2.65625 10.664062 2.65625 Z M 10.664062 2.65625 "/>
    </symbol>

    <symbol id="twitter" viewBox="0 0 16 16" width="16" height="16">
        <path  d="M 14.355469 4.742188 C 15.007812 4.28125 15.554688 3.703125 16 3.039062 C 15.40625 3.300781 14.769531 3.472656 14.109375 3.558594 C 14.789062 3.152344 15.308594 2.511719 15.554688 1.742188 C 14.917969 2.121094 14.21875 2.386719 13.472656 2.539062 C 12.871094 1.898438 12.011719 1.5 11.078125 1.5 C 9.261719 1.5 7.800781 2.972656 7.800781 4.78125 C 7.800781 5.039062 7.820312 5.289062 7.875 5.527344 C 5.148438 5.394531 2.734375 4.089844 1.113281 2.097656 C 0.832031 2.589844 0.664062 3.152344 0.664062 3.753906 C 0.664062 4.890625 1.25 5.898438 2.121094 6.480469 C 1.59375 6.472656 1.078125 6.316406 0.640625 6.078125 L 0.640625 6.113281 C 0.640625 7.707031 1.777344 9.03125 3.269531 9.335938 C 3 9.410156 2.710938 9.445312 2.40625 9.445312 C 2.199219 9.445312 1.984375 9.433594 1.789062 9.386719 C 2.210938 10.6875 3.417969 11.644531 4.851562 11.675781 C 3.734375 12.546875 2.320312 13.074219 0.785156 13.074219 C 0.515625 13.074219 0.257812 13.0625 0 13.027344 C 1.453125 13.964844 3.175781 14.5 5.03125 14.5 C 10.820312 14.5 14.59375 9.671875 14.355469 4.742188 Z M 14.355469 4.742188 "/>
    </symbol>

    <symbol id="linkedin" viewBox="0 0 16 16" width="16" height="16">
        <path d="M 2.3125 0.8125 C 1.210938 0.8125 0.492188 1.535156 0.492188 2.484375 C 0.492188 3.414062 1.191406 4.15625 2.269531 4.15625 L 2.292969 4.15625 C 3.414062 4.15625 4.113281 3.414062 4.113281 2.484375 C 4.089844 1.535156 3.414062 0.8125 2.3125 0.8125 Z M 2.3125 0.8125 "/>
        <path d="M 0.683594 5.480469 L 3.898438 5.480469 L 3.898438 15.160156 L 0.683594 15.160156 Z M 0.683594 5.480469 "/>
        <path d="M 11.796875 5.253906 C 10.0625 5.253906 8.898438 6.882812 8.898438 6.882812 L 8.898438 5.480469 L 5.679688 5.480469 L 5.679688 15.160156 L 8.898438 15.160156 L 8.898438 9.753906 C 8.898438 9.464844 8.917969 9.175781 9.003906 8.96875 C 9.234375 8.390625 9.765625 7.792969 10.652344 7.792969 C 11.820312 7.792969 12.285156 8.679688 12.285156 9.980469 L 12.285156 15.160156 L 15.5 15.160156 L 15.5 9.609375 C 15.5 6.636719 13.914062 5.253906 11.796875 5.253906 Z M 11.796875 5.253906 "/>
    </symbol>

    <symbol id="vimeo" viewBox="0 0 16 16" width="16" height="16">
        <path d="M 9.179688 4.773438 C 11.003906 3.679688 11.984375 5.222656 11.050781 6.964844 C 10.113281 8.714844 9.253906 9.855469 8.8125 9.855469 C 8.375 9.855469 8.027344 8.683594 7.515625 6.644531 C 6.992188 4.535156 6.992188 0.726562 4.792969 1.160156 C 2.71875 1.570312 0 4.820312 0 4.820312 L 0.644531 5.671875 C 0.644531 5.671875 1.984375 4.613281 2.433594 5.140625 C 2.882812 5.671875 4.59375 12.046875 5.160156 13.226562 C 5.65625 14.257812 7.027344 15.621094 8.523438 14.648438 C 10.035156 13.671875 15.027344 9.410156 15.921875 4.367188 C 16.8125 -0.667969 9.90625 0.386719 9.179688 4.773438 Z M 9.179688 4.773438 "/>
    </symbol>

    <symbol id="mail" viewBox="0 0 14 14" width="14" height="14">
        <path d="M 12.769531 2.078125 L 1.230469 2.078125 C 0.550781 2.078125 0 2.632812 0 3.308594 L 0 10.691406 C 0 11.371094 0.554688 11.921875 1.230469 11.921875 L 12.769531 11.921875 C 13.445312 11.921875 14 11.375 14 10.691406 L 14 3.308594 C 14 2.632812 13.453125 2.078125 12.769531 2.078125 Z M 12.597656 2.898438 C 12.347656 3.148438 8.019531 7.453125 7.871094 7.601562 C 7.636719 7.832031 7.328125 7.960938 7 7.960938 C 6.671875 7.960938 6.363281 7.832031 6.128906 7.601562 C 6.027344 7.5 1.75 3.242188 1.402344 2.898438 Z M 0.820312 10.523438 L 0.820312 3.476562 L 4.363281 7.003906 Z M 1.402344 11.101562 L 4.945312 7.582031 L 5.550781 8.179688 C 5.9375 8.566406 6.453125 8.78125 7 8.78125 C 7.546875 8.78125 8.0625 8.566406 8.449219 8.179688 L 9.054688 7.582031 L 12.597656 11.101562 Z M 13.179688 10.523438 L 9.636719 7.003906 L 13.179688 3.476562 Z M 13.179688 10.523438 "/>
    </symbol>

    <symbol id="search" viewBox="0 0 17 17" width="17" height="17">
        <path d="M 7.488281 0 C 3.359375 0 0 3.359375 0 7.488281 C 0 11.613281 3.359375 14.972656 7.488281 14.972656 C 11.613281 14.972656 14.972656 11.613281 14.972656 7.488281 C 14.972656 3.359375 11.613281 0 7.488281 0 Z M 7.488281 13.589844 C 4.121094 13.589844 1.382812 10.851562 1.382812 7.488281 C 1.382812 4.121094 4.121094 1.382812 7.488281 1.382812 C 10.851562 1.382812 13.589844 4.121094 13.589844 7.488281 C 13.589844 10.851562 10.851562 13.589844 7.488281 13.589844 Z M 7.488281 13.589844 "/>
        <path d="M 16.796875 15.820312 L 12.835938 11.859375 C 12.566406 11.589844 12.128906 11.589844 11.859375 11.859375 C 11.589844 12.128906 11.589844 12.566406 11.859375 12.835938 L 15.820312 16.796875 C 15.957031 16.933594 16.132812 17 16.308594 17 C 16.484375 17 16.664062 16.933594 16.796875 16.796875 C 17.066406 16.527344 17.066406 16.089844 16.796875 15.820312 Z M 16.796875 15.820312 "/>
    </symbol>

    <symbol id="arrow-right" viewBox="0 0 14 14" width="14" height="14">
        <path d="M 13.777344 6.457031 L 8.71875 1.398438 C 8.574219 1.253906 8.382812 1.175781 8.179688 1.175781 C 7.972656 1.175781 7.78125 1.253906 7.636719 1.398438 L 7.175781 1.859375 C 7.035156 2.003906 6.953125 2.195312 6.953125 2.402344 C 6.953125 2.605469 7.035156 2.804688 7.175781 2.949219 L 10.128906 5.90625 L 0.757812 5.90625 C 0.332031 5.90625 0 6.234375 0 6.660156 L 0 7.308594 C 0 7.730469 0.332031 8.09375 0.757812 8.09375 L 10.160156 8.09375 L 7.175781 11.066406 C 7.035156 11.210938 6.953125 11.398438 6.953125 11.605469 C 6.953125 11.808594 7.035156 12 7.175781 12.144531 L 7.636719 12.601562 C 7.78125 12.746094 7.972656 12.824219 8.179688 12.824219 C 8.382812 12.824219 8.574219 12.742188 8.71875 12.597656 L 13.777344 7.542969 C 13.921875 7.398438 14 7.207031 14 7 C 14 6.792969 13.921875 6.601562 13.777344 6.457031 Z M 13.777344 6.457031 "/>
    </symbol>

</svg>