<svg xmlns="http://www.w3.org/2000/svg" width="62.048" height="42.187" viewBox="0 0 62.048 42.187">
  <g id="logo_03" transform="translate(-1374.902 -6204.746)">
    <g id="logo_03-2" data-name="logo_03" transform="translate(1375 6210)">
      <g id="black_box" data-name="black box">
        <text id="BLACK" transform="translate(17.902 8.746)" font-size="13" font-family="SegoeUI, Segoe UI" letter-spacing="-0.05em"><tspan x="-17.537" y="0">BLACK</tspan></text>
        <rect id="Shape_29" data-name="Shape 29" width="9.647" height="9.566" transform="translate(52.303 20.4)"/>
        <text id="BOX" transform="translate(23.273 29.933)" font-size="26" font-family="SegoeUI, Segoe UI" letter-spacing="-0.075em"><tspan x="-22.654" y="0">BOX</tspan></text>
      </g>
    </g>
    <path id="Color_Overlay" data-name="Color Overlay" d="M1392.1,6237.686a9.46,9.46,0,0,1-2.33-6.639,10.033,10.033,0,0,1,2.374-7.008,8.3,8.3,0,0,1,6.462-2.615,7.811,7.811,0,0,1,6.075,2.539,9.5,9.5,0,0,1,2.3,6.64,10.053,10.053,0,0,1-2.362,7.046,8.14,8.14,0,0,1-6.322,2.59A7.989,7.989,0,0,1,1392.1,6237.686Zm1.694-12.264a9.208,9.208,0,0,0-.045,10.849,5.7,5.7,0,0,0,4.551,2.051,5.978,5.978,0,0,0,4.723-1.956,7.984,7.984,0,0,0,1.726-5.47,8.343,8.343,0,0,0-1.676-5.574,5.743,5.743,0,0,0-4.62-1.968A5.867,5.867,0,0,0,1393.792,6225.421Zm33.511,14.544V6230.4h9.647v9.565Zm-9.36-.033-4.189-6.969a6.359,6.359,0,0,1-.42-.9h-.05c-.084.2-.229.495-.432.9l-4.316,6.969h-2.614l6.092-9.152-5.61-9.052h2.614l3.719,6.4a12.623,12.623,0,0,1,.648,1.27h.05a14.117,14.117,0,0,1,.711-1.32l3.873-6.348h2.451l-5.727,9.026,5.8,9.179Zm-39.935,0v-18.2h5.179a5.668,5.668,0,0,1,3.745,1.154,3.737,3.737,0,0,1,1.385,3.009,4.433,4.433,0,0,1-.838,2.692,4.521,4.521,0,0,1-2.312,1.625v.05a4.631,4.631,0,0,1,2.946,1.391,4.277,4.277,0,0,1,1.1,3.052,4.76,4.76,0,0,1-1.676,3.784,6.235,6.235,0,0,1-4.227,1.447Zm2.131-1.93h2.9a4.342,4.342,0,0,0,2.913-.888,3.05,3.05,0,0,0,1.034-2.438q0-3.223-4.391-3.225h-2.451Zm0-8.468h2.185a4.15,4.15,0,0,0,2.755-.844,2.943,2.943,0,0,0,1-2.38q0-2.654-3.491-2.653h-2.451Zm17.124-11.887a4.621,4.621,0,0,1-1.167-3.284,4.832,4.832,0,0,1,1.314-3.528,4.456,4.456,0,0,1,3.333-1.345,5.356,5.356,0,0,1,2.146.375V6211a4.359,4.359,0,0,0-2.158-.545,3.306,3.306,0,0,0-2.542,1.048,3.94,3.94,0,0,0-.976,2.8,3.758,3.758,0,0,0,.911,2.651,3.1,3.1,0,0,0,2.39.987,4.492,4.492,0,0,0,2.374-.609v1.035a5.342,5.342,0,0,1-2.514.533A4.066,4.066,0,0,1,1397.263,6217.649Zm11.678,1.1-3.516-4.163a2.517,2.517,0,0,1-.241-.318h-.027v4.48h-1.066v-9.1h1.066v4.279h.027a2.428,2.428,0,0,1,.241-.312l3.4-3.967h1.326l-3.9,4.368,4.177,4.734Zm-13.865,0-.965-2.551h-3.859l-.908,2.551h-1.187l3.491-9.1h1.106l3.5,9.1Zm-3.054-7.387-1.414,3.878h3.154l-1.428-3.878a3.7,3.7,0,0,1-.139-.611h-.025A3.288,3.288,0,0,1,1392.022,6211.358Zm-8.662,7.387v-9.1h1.067v8.138h3.657v.964Zm-6.8,0v-9.1h2.59a2.827,2.827,0,0,1,1.871.578,1.864,1.864,0,0,1,.692,1.5,2.218,2.218,0,0,1-.418,1.347,2.262,2.262,0,0,1-1.156.812v.026a2.315,2.315,0,0,1,1.472.7,2.139,2.139,0,0,1,.553,1.527,2.382,2.382,0,0,1-.838,1.891,3.121,3.121,0,0,1-2.114.723Zm1.067-.964h1.447a2.168,2.168,0,0,0,1.457-.443,1.521,1.521,0,0,0,.517-1.22q0-1.612-2.2-1.612h-1.225Zm0-4.233h1.092a2.08,2.08,0,0,0,1.378-.421,1.475,1.475,0,0,0,.5-1.191q0-1.325-1.746-1.327h-1.225Z" fill="#70737e"/>
  </g>
</svg>
