<svg xmlns="http://www.w3.org/2000/svg" width="108.699" height="37" viewBox="0 0 108.699 37">
  <g id="logo_06" transform="translate(-1375 -6288.367)">
    <g id="logo_06-2" data-name="logo_06" transform="translate(1375 6296)">
      <g id="Domo">
        <path id="Shape_9_copy_2" data-name="Shape 9 copy 2" d="M17.25,10.848a5.082,5.082,0,1,1,5.118-5.081A5.1,5.1,0,0,1,17.25,10.848ZM5.118,23.646a5.082,5.082,0,1,1,5.118-5.082A5.1,5.1,0,0,1,5.118,23.646Zm0-12.8a5.082,5.082,0,1,1,5.118-5.081A5.1,5.1,0,0,1,5.118,10.848ZM17.25,13.483a5.082,5.082,0,1,1-5.118,5.081A5.1,5.1,0,0,1,17.25,13.483Z"/>
        <rect id="Shape_10" data-name="Shape 10" width="2.024" height="23.335" transform="translate(26.3 0.432)"/>
        <text id="DOMO-2" data-name="DOMO" transform="translate(64.698 22.367)" font-size="28" font-family="SegoeUI, Segoe UI"><tspan x="-43.497" y="0">DOMO</tspan></text>
      </g>
    </g>
    <path id="Color_Overlay" data-name="Color Overlay" d="M1401.3,6319.768v-1.4h-2.528v-19.605h2.528v-2.33h2.024v2.33h.863q10.361,0,10.362,9.556a9.629,9.629,0,0,1-2.877,7.294,10.677,10.677,0,0,1-7.7,2.755h-.644v1.4Zm2.024-3.478h.671a8.3,8.3,0,0,0,6-2.065,7.74,7.74,0,0,0,2.146-5.851q0-7.534-8.011-7.534h-.807Zm-2.255,0h.232v-15.45h-.232Zm-13.937-1.726a5.118,5.118,0,1,1,5.118,5.083A5.1,5.1,0,0,1,1387.132,6314.564Zm-12.132,0a5.118,5.118,0,1,1,5.118,5.083A5.1,5.1,0,0,1,1375,6314.564Zm90.881,1.384a10.193,10.193,0,0,1-2.509-7.151,10.8,10.8,0,0,1,2.557-7.548,8.93,8.93,0,0,1,6.958-2.815,8.415,8.415,0,0,1,6.542,2.734,10.23,10.23,0,0,1,2.481,7.15,10.833,10.833,0,0,1-2.542,7.588,8.761,8.761,0,0,1-6.807,2.79A8.609,8.609,0,0,1,1465.881,6315.948Zm1.824-13.208a9.916,9.916,0,0,0-.048,11.683,6.128,6.128,0,0,0,4.9,2.208,6.436,6.436,0,0,0,5.085-2.1,8.6,8.6,0,0,0,1.86-5.893,8.991,8.991,0,0,0-1.8-6,6.191,6.191,0,0,0-4.977-2.121A6.327,6.327,0,0,0,1467.7,6302.74Zm-48.076,13.208a10.193,10.193,0,0,1-2.509-7.151,10.8,10.8,0,0,1,2.557-7.548,8.932,8.932,0,0,1,6.958-2.815,8.415,8.415,0,0,1,6.542,2.734,10.231,10.231,0,0,1,2.482,7.15,10.841,10.841,0,0,1-2.542,7.588,8.764,8.764,0,0,1-6.809,2.79A8.609,8.609,0,0,1,1419.628,6315.948Zm1.826-13.208a9.909,9.909,0,0,0-.048,11.683,6.123,6.123,0,0,0,4.9,2.208,6.44,6.44,0,0,0,5.087-2.1,8.608,8.608,0,0,0,1.859-5.893,8.99,8.99,0,0,0-1.8-6,6.188,6.188,0,0,0-4.977-2.121A6.322,6.322,0,0,0,1421.454,6302.74Zm35.764,15.627v-13.152q0-1.56.192-3.814h-.054a12.053,12.053,0,0,1-.588,1.9l-6.7,15.066h-1.121l-6.685-14.957a11.657,11.657,0,0,1-.588-2.01h-.056q.109,1.176.109,3.842v13.125h-2.214v-19.605h3.036l6.014,13.672a17.46,17.46,0,0,1,.9,2.352h.083q.588-1.613.942-2.408l6.14-13.616h2.871v19.605Zm-70.086-16.6a5.118,5.118,0,1,1,5.118,5.082A5.1,5.1,0,0,1,1387.132,6301.766Zm-12.132,0a5.118,5.118,0,1,1,5.118,5.082A5.1,5.1,0,0,1,1375,6301.766Z" fill="#70737e"/>
  </g>
</svg>
