<svg xmlns="http://www.w3.org/2000/svg" width="93.566" height="40" viewBox="0 0 93.566 40">
  <g id="logo_02" transform="translate(-1176.386 -6201.996)">
    <g id="logo_02-2" data-name="logo_02" transform="translate(1176 6210)">
      <g id="FLO">
        <path id="Rounded_Rectangle_1_" data-name="Rounded Rectangle 1 " d="M26.486,23.34a8.083,8.083,0,0,1-7.9,6.414,8,8,0,0,1-1.417-.128,8,8,0,0,1-1.417.128,8.083,8.083,0,0,1-7.9-6.414A8.081,8.081,0,0,1,.386,15.28V15A8.082,8.082,0,0,1,7.771,6.941,8.051,8.051,0,0,1,17.166.2a8.051,8.051,0,0,1,9.395,6.746A8.083,8.083,0,0,1,33.946,15v.284A8.081,8.081,0,0,1,26.486,23.34Zm-5.958-7.053a8.389,8.389,0,0,1-1.25.2q-.052.348-.133.685a6.673,6.673,0,0,0,3.548,4.3v-.272A6.638,6.638,0,0,0,20.529,16.286Zm2.155-7.471A6.672,6.672,0,0,0,19.147,13.1c.018.076.042.151.058.228a8.341,8.341,0,0,1,1.324.205A6.636,6.636,0,0,0,22.684,8.816Zm-5.517,19.6a6.666,6.666,0,0,0,5.352-5.07,8.04,8.04,0,0,1-5.356-2.517,8.036,8.036,0,0,1-5.348,2.517A6.666,6.666,0,0,0,17.166,28.415ZM7.706,9.03a6.658,6.658,0,0,0-3.351,5.782v.653a6.658,6.658,0,0,0,3.324,5.767,8.072,8.072,0,0,1,3.232-6.322A8.072,8.072,0,0,1,7.706,9.03Zm3.933,12.437a6.663,6.663,0,0,0,3.542-4.313c-.053-.222-.094-.447-.128-.675a7.942,7.942,0,0,1-1.248-.192,6.638,6.638,0,0,0-2.165,4.908ZM13.8,13.535a8.173,8.173,0,0,1,1.323-.2c.015-.07.037-.137.053-.207a6.663,6.663,0,0,0-3.531-4.311A6.636,6.636,0,0,0,13.8,13.535ZM17.166,1.406a6.665,6.665,0,0,0-5.441,5.522,8.053,8.053,0,0,1,5.439,2.519,8.039,8.039,0,0,1,5.442-2.519A6.665,6.665,0,0,0,17.166,1.406ZM29.978,14.812A6.658,6.658,0,0,0,26.627,9.03a8.071,8.071,0,0,1-3.206,5.881,8.072,8.072,0,0,1,3.232,6.322,6.658,6.658,0,0,0,3.324-5.767Z"/>
        <text id="FLO-2" data-name="FLO" transform="translate(67.953 23.996)" font-size="30" font-family="SegoeUI, Segoe UI"><tspan x="-25.181" y="0">FLO</tspan></text>
      </g>
    </g>
    <path id="Color_Overlay" data-name="Color Overlay" d="M1193.166,6239.625a7.976,7.976,0,0,1-1.417.128,74.478,74.478,0,0,1-15.362-14.474V6225a91.282,91.282,0,0,1,15.362-14.929,7.974,7.974,0,0,0,2.834,0A91.37,91.37,0,0,1,1209.947,6225v.283a74.431,74.431,0,0,1-15.364,14.474A7.977,7.977,0,0,1,1193.166,6239.625Zm-5.351-6.281a5.36,5.36,0,0,0,10.7,0,6.949,6.949,0,0,0-10.7,0Zm7.464-6.859c-.033.233-.078.46-.133.686a6.678,6.678,0,0,0,3.549,4.3v-.272a6.641,6.641,0,0,0-2.164-4.908A8.2,8.2,0,0,1,1195.278,6226.486Zm-7.64,4.708v.272a6.662,6.662,0,0,0,3.542-4.312c-.052-.222-.094-.448-.128-.676a7.969,7.969,0,0,1-1.248-.191A6.636,6.636,0,0,0,1187.638,6231.194Zm11.782-6.284a8.074,8.074,0,0,1,3.234,6.322,6.658,6.658,0,0,0,3.323-5.767v-.653a6.656,6.656,0,0,0-3.351-5.781A8.066,8.066,0,0,1,1199.42,6224.91Zm-19.066-.1v.653a6.656,6.656,0,0,0,3.324,5.767,7.387,7.387,0,0,0,.027-12.2A6.659,6.659,0,0,0,1180.355,6224.812Zm14.792-1.71c.019.077.042.15.058.229a8.239,8.239,0,0,1,1.325.205,2.8,2.8,0,1,0-1.383-.434Zm-5.343.434a8.138,8.138,0,0,1,1.323-.2c.014-.071.036-.136.052-.207a2.813,2.813,0,1,0-1.375.409Zm-2.078-6.608a7.134,7.134,0,0,0,10.882,0,5.442,5.442,0,1,0-10.882,0Zm62.855,14.476a10.92,10.92,0,0,1-2.687-7.661,11.574,11.574,0,0,1,2.739-8.087,9.571,9.571,0,0,1,7.456-3.018,9.02,9.02,0,0,1,7.011,2.93,10.967,10.967,0,0,1,2.657,7.661,11.606,11.606,0,0,1-2.725,8.13,9.391,9.391,0,0,1-7.294,2.989A9.228,9.228,0,0,1,1250.581,6231.4Zm1.956-14.15a10.622,10.622,0,0,0-.052,12.517,6.574,6.574,0,0,0,5.252,2.366,6.894,6.894,0,0,0,5.45-2.257,9.216,9.216,0,0,0,1.992-6.312,9.638,9.638,0,0,0-1.934-6.432,6.628,6.628,0,0,0-5.332-2.271A6.778,6.778,0,0,0,1252.537,6217.252ZM1236.175,6234V6212.99h2.46v18.779h8.438V6234Zm-14.65,0V6212.99h10.664v2.227h-8.2v7.265h7.587v2.213h-7.587v9.3Z" fill="#70737e"/>
  </g>
</svg>
