<svg xmlns="http://www.w3.org/2000/svg" width="130.876" height="29.168" viewBox="0 0 130.876 29.168">
  <g id="logo_01" transform="translate(-945.003 -6210.314)">
    <g id="logo_01-2" data-name="logo_01" transform="translate(945 6210)">
      <g id="Morex">
        <path id="Rounded_Rectangle_1" data-name="Rounded Rectangle 1" d="M27.392,12.148a7.162,7.162,0,0,1-3.779,2.913,7.244,7.244,0,0,1,3.719,11.327c.023-.06.039-.123.06-.184a7.108,7.108,0,0,1-5.975,3.277h-.25a7.15,7.15,0,0,1-6.807-5.047,7.286,7.286,0,0,1-1.053,1.955c.023-.06.039-.123.06-.184a7.108,7.108,0,0,1-5.975,3.277h-.25A7.231,7.231,0,0,1,1.477,17.876c-.023.06-.039.123-.06.184A7.162,7.162,0,0,1,5.2,15.147,7.244,7.244,0,0,1,1.477,3.82c-.023.06-.039.123-.06.184A7.108,7.108,0,0,1,7.391.727h.25a7.15,7.15,0,0,1,6.807,5.047A7.286,7.286,0,0,1,15.5,3.82c-.023.06-.039.123-.06.184A7.108,7.108,0,0,1,21.417.727h.25a7.231,7.231,0,0,1,5.664,11.605C27.354,12.272,27.371,12.209,27.392,12.148ZM21,25.934h.576a5.894,5.894,0,0,0,5.6-4.122,5.879,5.879,0,0,0-5.348-3.48h-.576a5.894,5.894,0,0,0-5.6,4.123A5.879,5.879,0,0,0,21,25.934ZM1.629,22.454a5.879,5.879,0,0,0,5.348,3.48h.576a5.894,5.894,0,0,0,5.6-4.122A5.879,5.879,0,0,0,7.8,18.331H7.228A5.894,5.894,0,0,0,1.629,22.454ZM7.8,4.275H7.228A5.894,5.894,0,0,0,1.629,8.4a5.879,5.879,0,0,0,5.348,3.48h.576a5.893,5.893,0,0,0,5.6-4.123A5.879,5.879,0,0,0,7.8,4.275Zm6.555,6.1a7.282,7.282,0,0,1-1.053,1.955c.023-.06.039-.123.06-.184a7.162,7.162,0,0,1-3.779,2.913,7.19,7.19,0,0,1,4.86,4.776A7.285,7.285,0,0,1,15.5,17.876c-.023.06-.039.123-.06.184a7.162,7.162,0,0,1,3.779-2.913A7.187,7.187,0,0,1,14.359,10.378Zm7.471-6.1h-.576a5.894,5.894,0,0,0-5.6,4.123A5.879,5.879,0,0,0,21,11.877h.576a5.893,5.893,0,0,0,5.6-4.123A5.879,5.879,0,0,0,21.83,4.275Z"/>
        <text id="MOREX-2" data-name="MOREX" transform="translate(83.878 23.314)" font-size="24" font-family="LibreFranklin-ExtraBoldItalic, Libre Franklin" font-weight="800" font-style="italic"><tspan x="-46.536" y="0">MOREX</tspan></text>
      </g>
    </g>
    <path id="Color_Overlay" data-name="Color Overlay" d="M966.166,6239.482a7.151,7.151,0,0,1-6.807-5.048,7.268,7.268,0,0,1-1.054,1.955c.023-.06.041-.123.061-.184a7.11,7.11,0,0,1-5.975,3.277h-.251a7.232,7.232,0,0,1-5.664-11.606c-.022.061-.039.124-.06.185A4.98,4.98,0,0,0,945,6218.2a7.233,7.233,0,0,1,1.474-4.383c-.022.06-.039.122-.06.183a7.106,7.106,0,0,1,5.974-3.276h.251a7.149,7.149,0,0,1,6.807,5.047,7.324,7.324,0,0,1,1.054-1.954c-.022.06-.039.122-.06.183a7.106,7.106,0,0,1,5.975-3.276h.249a7.229,7.229,0,0,1,5.664,11.6c.023-.06.041-.122.061-.183a4.979,4.979,0,0,0,1.414,9.857,7.234,7.234,0,0,1-1.475,4.382c.023-.06.041-.123.061-.184a7.109,7.109,0,0,1-5.974,3.277Zm-5.51-7.027a5.878,5.878,0,0,0,5.348,3.479h.578a4.063,4.063,0,1,0,.249-7.6h-.575A5.893,5.893,0,0,0,960.655,6232.455Zm-14.026,0a5.876,5.876,0,0,0,5.348,3.479h.576a4.063,4.063,0,1,0,.252-7.6h-.576A5.892,5.892,0,0,0,946.63,6232.455Zm7.956-7.393a7.19,7.19,0,0,1,4.861,4.776,7.3,7.3,0,0,1,1.055-1.962c-.022.061-.039.124-.06.185a3.917,3.917,0,1,0-1.084-7.683,7.29,7.29,0,0,1-1.054,1.955c.023-.06.041-.122.061-.183A7.163,7.163,0,0,1,954.586,6225.062Zm6.069-6.664a5.876,5.876,0,0,0,5.348,3.479h.578a4.063,4.063,0,1,0,.249-7.6h-.575A5.9,5.9,0,0,0,960.655,6218.4Zm-14.026,0a5.875,5.875,0,0,0,5.348,3.479h.576a4.063,4.063,0,1,0,.252-7.6h-.576A5.894,5.894,0,0,0,946.63,6218.4Zm63.432,14.256a6.027,6.027,0,0,1-2.556-2.579,8.511,8.511,0,0,1-.875-3.984,12.847,12.847,0,0,1,.119-1.849,11.674,11.674,0,0,1,1.693-4.764,9.065,9.065,0,0,1,3.324-3.121,9.313,9.313,0,0,1,4.511-1.091,8.018,8.018,0,0,1,3.949.925,6.221,6.221,0,0,1,2.556,2.639,8.713,8.713,0,0,1,.888,4.044,12.321,12.321,0,0,1-.121,1.824,11.556,11.556,0,0,1-1.68,4.715,8.862,8.862,0,0,1-3.3,3.072,9.433,9.433,0,0,1-4.5,1.068A8.37,8.37,0,0,1,1010.061,6232.653Zm3.229-12.576a10.725,10.725,0,0,0-1.524,4.668,17.114,17.114,0,0,0-.169,2.281,3.755,3.755,0,0,0,.625,2.422,2.424,2.424,0,0,0,1.968.746,3.347,3.347,0,0,0,2.867-1.394,10.377,10.377,0,0,0,1.477-4.512,18.369,18.369,0,0,0,.168-2.375,4.129,4.129,0,0,0-.612-2.52,2.255,2.255,0,0,0-1.907-.792A3.387,3.387,0,0,0,1013.29,6220.078Zm56.221,13.236a1.259,1.259,0,0,1-.517-.084.556.556,0,0,1-.276-.324l-2.352-5.087q-.1-.24-.216-.24c-.08,0-.193.1-.337.288l-3.791,5.136a.588.588,0,0,1-.337.263,2.6,2.6,0,0,1-.576.048h-3.216c-.351,0-.528-.111-.528-.336a1.687,1.687,0,0,1,.409-.865l5.952-7.486a1.072,1.072,0,0,0,.288-.553.612.612,0,0,0-.049-.265l-3.937-7.751a.615.615,0,0,1-.072-.263c0-.193.136-.288.409-.288h4.032a.962.962,0,0,1,.5.1.855.855,0,0,1,.265.359l1.99,4.369q.073.193.193.192c.08,0,.168-.064.265-.192l3.287-4.488a.823.823,0,0,1,.324-.276,1.579,1.579,0,0,1,.517-.059h3.528c.224,0,.337.1.337.288a.894.894,0,0,1-.193.527l-5.736,7.152a1.1,1.1,0,0,0-.288.5.731.731,0,0,0,.1.288l4.176,8.064a2.092,2.092,0,0,1,.263.719.21.21,0,0,1-.13.205,1.1,1.1,0,0,1-.421.06Zm-26.664,0c-.368,0-.553-.161-.553-.48l.024-.191,2.377-16.752a.7.7,0,0,1,.108-.324.418.418,0,0,1,.276-.059H1057.7c.224,0,.335.126.335.383a.631.631,0,0,1-.023.191l-.36,2.5a.627.627,0,0,1-.155.36.607.607,0,0,1-.4.1h-7.632a.481.481,0,0,0-.313.083.5.5,0,0,0-.119.324l-.407,2.856-.025.144a.17.17,0,0,0,.061.157.489.489,0,0,0,.227.036h4.871q.216,0,.277.083a.464.464,0,0,1,.036.3l-.409,2.784a.373.373,0,0,1-.085.24.493.493,0,0,1-.276.048h-4.944a.269.269,0,0,0-.229.083.864.864,0,0,0-.108.3l-.432,3.024v.1q0,.193.169.193h8.16a.339.339,0,0,1,.286.1.437.437,0,0,1,.025.336l-.36,2.736a.555.555,0,0,1-.131.288.573.573,0,0,1-.348.072Zm-7.537,0c-.319,0-.512-.192-.575-.576l-1.513-6.456a.361.361,0,0,0-.12-.191.5.5,0,0,0-.263-.048h-1.968a.369.369,0,0,0-.24.06.362.362,0,0,0-.1.229l-.936,6.48a.481.481,0,0,1-.191.409,1.248,1.248,0,0,1-.576.1h-3.577c-.384,0-.543-.226-.479-.672l2.375-16.752a.7.7,0,0,1,.108-.324.421.421,0,0,1,.277-.059h7.751a8.387,8.387,0,0,1,4.788,1.163,3.771,3.771,0,0,1,1.691,3.3,5.553,5.553,0,0,1-1.044,3.264,5.659,5.659,0,0,1-2.723,2.112.764.764,0,0,0-.337.192.253.253,0,0,0-.023.24l2.159,6.937a1.27,1.27,0,0,1,.048.263c0,.226-.144.336-.432.336Zm-3.649-14.521a.934.934,0,0,0-.119.36l-.479,3.337-.025.119c0,.1.02.157.061.18a.4.4,0,0,0,.2.036h2.665a2.793,2.793,0,0,0,1.992-.72,2.392,2.392,0,0,0,.767-1.824,1.367,1.367,0,0,0-.551-1.187,2.5,2.5,0,0,0-1.489-.4H1031.9A.282.282,0,0,0,1031.661,6218.793Zm-32.735,14.521a.661.661,0,0,1-.479-.144.628.628,0,0,1-.1-.528l1.585-11.113v-.1c0-.048-.017-.072-.049-.072s-.088.072-.168.216L994.271,6233a.591.591,0,0,1-.205.252.693.693,0,0,1-.324.06h-2.278a.441.441,0,0,1-.324-.108.858.858,0,0,1-.18-.4l-2.21-11.161c-.047-.16-.1-.239-.168-.239a.106.106,0,0,0-.085.06.26.26,0,0,0-.036.133l-1.607,11.352a.378.378,0,0,1-.133.288.584.584,0,0,1-.323.072H983.35a.471.471,0,0,1-.3-.072.381.381,0,0,1-.083-.288l.047-.384,2.352-16.68a.738.738,0,0,1,.108-.324.477.477,0,0,1,.3-.059h5.905a.561.561,0,0,1,.575.5l1.824,8.76c0,.1.033.144.1.144s.121-.056.169-.169l4.128-8.711a.853.853,0,0,1,.229-.419.525.525,0,0,1,.346-.108h6.242c.24,0,.335.119.288.36l-2.377,16.943a.62.62,0,0,1-.168.419.991.991,0,0,1-.5.084Z" fill="#70737e"/>
  </g>
</svg>
