<svg xmlns="http://www.w3.org/2000/svg" width="110.585" height="50.405" viewBox="0 0 110.585 50.405">
  <g id="logo_04" transform="translate(-942.715 -6276.841)">
    <g id="logo_04-2" data-name="logo_04" transform="translate(945 6290)">
      <g id="Novella">
        <text id="novella-2" data-name="novella" transform="translate(51.715 23.841)" font-size="34" font-family="SegoeUI, Segoe UI"><tspan x="-53.499" y="0">novella</tspan></text>
        <text id="HANDICRAFT" transform="translate(54.3 35.247)" font-size="9" font-family="JosefinSans-Light, Josefin Sans" font-weight="300" letter-spacing="0.6em"><tspan x="-53.442" y="0">HANDICRAFT</tspan></text>
      </g>
    </g>
    <path id="Color_Overlay" data-name="Color Overlay" d="M976.144,6325.4l-4.924-5.545.01,5.391H970.8v-6.524h.027l4.923,5.589-.01-5.454h.424v6.543Zm28.5-.513a3.058,3.058,0,0,1-1.148-1.17,3.268,3.268,0,0,1-.41-1.621,3.379,3.379,0,0,1,.422-1.683,3.162,3.162,0,0,1,2.8-1.629,3.3,3.3,0,0,1,1.746.486l-.189.4a2.9,2.9,0,0,0-1.548-.468,2.653,2.653,0,0,0-1.386.383,2.792,2.792,0,0,0-1.013,1.044,2.886,2.886,0,0,0-.373,1.444,2.971,2.971,0,0,0,.341,1.418,2.585,2.585,0,0,0,.973,1.021,2.768,2.768,0,0,0,1.457.378,2.866,2.866,0,0,0,1.557-.459l.206.388a3.5,3.5,0,0,1-.792.355,3.147,3.147,0,0,1-.945.14A3.3,3.3,0,0,1,1004.647,6324.887Zm45.27.358v-5.965h-1.864v-.424h4.186v.424h-1.881v5.965Zm-11.952,0v-6.389h3.581v.424h-3.14v2.637h2.78v.414h-2.78v2.915Zm-7.371,0-.838-2.114h-2.816l-.846,2.114h-.441l2.7-6.669h.035l2.7,6.669Zm-3.492-2.527h2.492l-1.232-3.142Zm-8.406,2.527-1.675-2.718a2.491,2.491,0,0,1-.476.037h-.991v2.681h-.441v-6.389h1.459a2.443,2.443,0,0,1,.967.2,1.775,1.775,0,0,1,.756.6,1.673,1.673,0,0,1,.294,1.008,2.085,2.085,0,0,1-.271,1.057,1.568,1.568,0,0,1-.837.689l1.729,2.833Zm-3.142-3.1h.964a1.569,1.569,0,0,0,1.246-.433,1.52,1.52,0,0,0,.373-1.025,1.4,1.4,0,0,0-.184-.7,1.33,1.33,0,0,0-.527-.513,1.6,1.6,0,0,0-.792-.189h-1.079Zm-19.935,3.1v-6.389h.441v6.389Zm-12.023,0v-6.389h1.575a3.631,3.631,0,0,1,1.94.478,2.9,2.9,0,0,1,1.124,1.214,3.5,3.5,0,0,1,.356,1.54,3.187,3.187,0,0,1-.427,1.656,2.968,2.968,0,0,1-1.143,1.111,3.171,3.171,0,0,1-1.543.39Zm.441-.422h1.322a2.958,2.958,0,0,0,1.408-.337,2.521,2.521,0,0,0,1-.963,2.828,2.828,0,0,0,.37-1.464,2.9,2.9,0,0,0-.338-1.381,2.528,2.528,0,0,0-.994-1.013,3.12,3.12,0,0,0-1.575-.378h-1.2Zm-20.61.422-.838-2.114h-2.816l-.846,2.114h-.441l2.7-6.669h.036l2.7,6.669Zm-3.492-2.527h2.492l-1.232-3.142Zm-8.766,2.527v-3h-3.853v3h-.44v-6.389h.44v2.97h3.853v-2.97h.441v6.389Zm84.677-12.35a4.655,4.655,0,0,1-1.437-3.57q0-4.762,5.612-5.545l5.1-.713q0-4.334-3.5-4.334a8.364,8.364,0,0,0-5.545,2.092v-2.789a10.537,10.537,0,0,1,5.777-1.594q5.993,0,5.993,6.342v11.057h-2.723v-2.656h-.067a5.7,5.7,0,0,1-5.229,3.054A5.582,5.582,0,0,1,1035.846,6312.9Zm5.17-7.09a6.685,6.685,0,0,0-2.856.938,2.71,2.71,0,0,0-.962,2.383,2.593,2.593,0,0,0,.887,2.034,3.436,3.436,0,0,0,2.367.789,4.366,4.366,0,0,0,3.345-1.421,5.069,5.069,0,0,0,1.319-3.594v-1.692Zm-38.7,6.118a9.476,9.476,0,0,1-2.059-6.515,9.3,9.3,0,0,1,2.249-6.467,7.21,7.21,0,0,1,5.586-2.5,6.39,6.39,0,0,1,5.164,2.159,9,9,0,0,1,1.826,5.993v1.427h-12a6.359,6.359,0,0,0,1.527,4.383,5.261,5.261,0,0,0,4.018,1.544,8.35,8.35,0,0,0,5.278-1.892v2.556a9.867,9.867,0,0,1-5.926,1.627A7.189,7.189,0,0,1,1002.318,6311.924Zm2.457-11.812a6.249,6.249,0,0,0-1.66,3.6h9.18a5.53,5.53,0,0,0-1.138-3.668,3.872,3.872,0,0,0-3.111-1.313A4.4,4.4,0,0,0,1004.776,6300.111ZM966.3,6311.857a8.814,8.814,0,0,1-2.251-6.316,9.2,9.2,0,0,1,2.342-6.691,8.413,8.413,0,0,1,6.324-2.407,7.625,7.625,0,0,1,5.935,2.341,9.28,9.28,0,0,1,2.134,6.491,9.128,9.128,0,0,1-2.3,6.515,8.051,8.051,0,0,1-6.167,2.449A7.878,7.878,0,0,1,966.3,6311.857Zm2.065-11.339a7.335,7.335,0,0,0-1.527,4.924,6.93,6.93,0,0,0,1.545,4.764,5.245,5.245,0,0,0,4.134,1.743,4.985,4.985,0,0,0,4.059-1.71,7.422,7.422,0,0,0,1.419-4.865,7.547,7.547,0,0,0-1.419-4.913,4.958,4.958,0,0,0-4.059-1.728A5.182,5.182,0,0,0,968.367,6300.518Zm59.07,13.323v-25.167h2.723v25.167Zm-8.236,0v-25.167h2.724v25.167Zm-30.148,0-6.442-17H985.6l4.318,12.351a11.159,11.159,0,0,1,.6,2.375h.067a11.167,11.167,0,0,1,.532-2.306l4.515-12.419H998.5l-6.772,17Zm-31.692,0v-9.7q0-5.41-3.951-5.412a4.29,4.29,0,0,0-3.38,1.537,5.7,5.7,0,0,0-1.335,3.875v9.7h-2.724v-17H948.7v2.822h.065a6.137,6.137,0,0,1,5.578-3.221,5.2,5.2,0,0,1,4.267,1.8,8.025,8.025,0,0,1,1.478,5.2v10.393Z" fill="#70737e"/>
  </g>
</svg>
