<svg xmlns="http://www.w3.org/2000/svg" width="124" height="29" viewBox="0 0 124 29">
  <g id="logo_05" transform="translate(-1149.768 -6295)">
    <g id="logo_05-2" data-name="logo_05" transform="translate(1151 6299)">
      <text id="tranceMILD" transform="translate(60.768 19)" font-size="29" font-family="AlegreyaSans-Regular, Alegreya Sans" letter-spacing="-0.05em"><tspan x="-61.567" y="0">trance</tspan><tspan y="0" font-family="AlegreyaSans-Black, Alegreya Sans" font-weight="800">MILD</tspan></text>
    </g>
    <path id="Color_Overlay" data-name="Color Overlay" d="M1255.79,6318l.29-5.509-.29-13.254,8.469-.116a8.549,8.549,0,0,1,6.365,2.249q2.219,2.247,2.218,6.48,0,5.019-2.581,7.714t-7.394,2.7Q1259.85,6318.261,1255.79,6318Zm5.8-14.238-.2,8.149.059,1.8a21.7,21.7,0,0,0,2.523.231,2.321,2.321,0,0,0,2.073-1.087,6.794,6.794,0,0,0,.71-3.582,15.166,15.166,0,0,0-.289-3.335,3.175,3.175,0,0,0-.929-1.753,2.661,2.661,0,0,0-1.768-.538A20.137,20.137,0,0,0,1261.59,6303.762Zm-58.232,12.658a7.186,7.186,0,0,1-1.624-4.974,7.505,7.505,0,0,1,1.624-5.074,5.483,5.483,0,0,1,4.38-1.885,4.772,4.772,0,0,1,3.6,1.319,5.061,5.061,0,0,1,1.275,3.669,8.954,8.954,0,0,1-.116,1.478l-.29.29-8.323.029v.059a5.646,5.646,0,0,0,1.1,3.741,3.874,3.874,0,0,0,3.133,1.305,6.494,6.494,0,0,0,2.03-.333,6.738,6.738,0,0,0,1.855-.942l.233.173-.349,1.972a9.228,9.228,0,0,1-4.059.986A5.692,5.692,0,0,1,1203.358,6316.42Zm1.958-9.368a4.8,4.8,0,0,0-1.291,2.655l6.409-.118.057-.4a3.309,3.309,0,0,0-.71-2.277,2.6,2.6,0,0,0-2.044-.8A3.338,3.338,0,0,0,1205.316,6307.052Zm-11.79,9.368a7.549,7.549,0,0,1-1.508-4.974,7.643,7.643,0,0,1,1.581-5.09,5.344,5.344,0,0,1,4.307-1.87,8.6,8.6,0,0,1,1.871.217,7.8,7.8,0,0,1,1.7.566l-.406,2-.26.085a5.445,5.445,0,0,0-2.987-.985,3.125,3.125,0,0,0-2.669,1.3,7.4,7.4,0,0,0,.044,7.353,3.257,3.257,0,0,0,2.769,1.348,5.651,5.651,0,0,0,1.64-.26,6.945,6.945,0,0,0,1.609-.726l.26.146-.26,1.943a8.97,8.97,0,0,1-3.538.754A5.105,5.105,0,0,1,1193.526,6316.42Zm-25.593.812a3.381,3.381,0,0,1-1.086-2.654,2.917,2.917,0,0,1,.68-2.03,3.845,3.845,0,0,1,2.015-1.073l4.7-1.1.03-1.886a2.387,2.387,0,0,0-.595-1.739,2.265,2.265,0,0,0-1.7-.609,4.6,4.6,0,0,0-1.973.464,9.484,9.484,0,0,0-2.117,1.45l-.231-.116-.29-1.652a8.2,8.2,0,0,1,4.958-1.8,4.431,4.431,0,0,1,2.973.928,3.178,3.178,0,0,1,1.088,2.551q0,.494-.174,3.568t-.174,3.6a1.439,1.439,0,0,0,.2.885.861.861,0,0,0,.7.246,3.27,3.27,0,0,0,.986-.174l.232.2-.232,1.305a4.121,4.121,0,0,1-1.654.58,2.232,2.232,0,0,1-1.435-.637,2.174,2.174,0,0,1-.565-1.508h-.2a8.87,8.87,0,0,1-3.1,2.174A4.4,4.4,0,0,1,1167.934,6317.232Zm2.074-4.365a1.728,1.728,0,0,0-.84.479,1.37,1.37,0,0,0-.262.913,2.016,2.016,0,0,0,.537,1.494,1.934,1.934,0,0,0,1.435.536q1.594,0,3.247-2.058l.087-2.378Zm-16.472,4.089a4.074,4.074,0,0,1-.725-2.61l.087-2.058-.029-6h-1.828l-.116-.175.146-1.363h1.768V6302.6l2-.871.231.2-.057,2.813h3.943l.116.174-.144,1.364h-3.915l-.146,7.858a2.287,2.287,0,0,0,.406,1.624,1.876,1.876,0,0,0,1.422.465,4.612,4.612,0,0,0,2.087-.581l.262.175-.232,1.508a8.8,8.8,0,0,1-2.9.84A3.877,3.877,0,0,1,1153.536,6316.956Zm90.452,1.043.29-5.509-.29-13.254h5.916l-.32,12.674.059,1.333h5.539l.319.406-.347,4.35Zm-7.889,0,.29-5.509-.29-13.254h5.916l-.319,12.674.231,6.089Zm-6.322,0-.144-5.683-.319-4.727h-.349l-3.016,8.642h-4.38l-2.493-8.642h-.349l-.406,4.175-.29,6.235h-4.843l1.827-18.763h6.7l.55,2.668,1.654,6.815h.347l1.828-6.612.666-2.872h6.612l1.508,18.763Zm-41.933,0,.144-9.018a2.645,2.645,0,0,0-.55-1.857,2.149,2.149,0,0,0-1.711-.667,5.962,5.962,0,0,0-3.945,2.06v3.653l.116,5.829h-2.29l.144-5.626-.116-7.511,2.176-.2v1.942h.173a8.762,8.762,0,0,1,3.683-2.06,4.85,4.85,0,0,1,3.32,1.017,3.586,3.586,0,0,1,1.116,2.9l-.057,3.771.116,5.771Zm-27.521,0,.144-5.626-.116-7.511,2.176-.2-.03,2.726h.174a5.618,5.618,0,0,1,1.8-2.074,3.626,3.626,0,0,1,1.943-.623,5.438,5.438,0,0,1,.755.057v2.234l-.262.086a3.786,3.786,0,0,0-1.072-.145,2.481,2.481,0,0,0-1.755.769,8.335,8.335,0,0,0-1.581,2.45l-.029,2.029.146,5.829Z" fill="#f84e77"/>
  </g>
</svg>
