<?xml version="1.0" encoding="UTF-8"?>
<svg xmlns="http://www.w3.org/2000/svg" xmlns:xlink="http://www.w3.org/1999/xlink" width="18pt" height="18pt" viewBox="0 0 18 18" version="1.1">
<g id="surface1">
<path style=" stroke:none;fill-rule:nonzero;fill:rgb(56.470588%,57.647059%,60%);fill-opacity:1;" d="M 7.4375 0 L 0.652344 0 C 0.292969 0 0 0.292969 0 0.652344 L 0 7.4375 C 0 7.792969 0.292969 8.085938 0.652344 8.085938 L 7.4375 8.085938 C 7.792969 8.085938 8.085938 7.792969 8.085938 7.4375 L 8.085938 0.652344 C 8.085938 0.292969 7.792969 0 7.4375 0 Z M 6.78125 6.78125 L 1.304688 6.78125 L 1.304688 1.304688 L 6.78125 1.304688 Z M 6.78125 6.78125 "/>
<path style=" stroke:none;fill-rule:nonzero;fill:rgb(56.470588%,57.647059%,60%);fill-opacity:1;" d="M 16.957031 0 L 10.171875 0 C 9.816406 0 9.523438 0.292969 9.523438 0.652344 L 9.523438 7.4375 C 9.523438 7.792969 9.816406 8.085938 10.171875 8.085938 L 16.957031 8.085938 C 17.316406 8.085938 17.609375 7.792969 17.609375 7.4375 L 17.609375 0.652344 C 17.609375 0.292969 17.316406 0 16.957031 0 Z M 16.304688 6.78125 L 10.824219 6.78125 L 10.824219 1.304688 L 16.304688 1.304688 Z M 16.304688 6.78125 "/>
<path style=" stroke:none;fill-rule:nonzero;fill:rgb(56.470588%,57.647059%,60%);fill-opacity:1;" d="M 7.4375 9.523438 L 0.652344 9.523438 C 0.292969 9.523438 0 9.816406 0 10.171875 L 0 16.957031 C 0 17.316406 0.292969 17.609375 0.652344 17.609375 L 7.4375 17.609375 C 7.792969 17.609375 8.085938 17.316406 8.085938 16.957031 L 8.085938 10.171875 C 8.085938 9.816406 7.792969 9.523438 7.4375 9.523438 Z M 6.78125 16.304688 L 1.304688 16.304688 L 1.304688 10.824219 L 6.78125 10.824219 Z M 6.78125 16.304688 "/>
<path style=" stroke:none;fill-rule:nonzero;fill:rgb(56.470588%,57.647059%,60%);fill-opacity:1;" d="M 16.957031 9.523438 L 10.171875 9.523438 C 9.816406 9.523438 9.523438 9.816406 9.523438 10.171875 L 9.523438 16.957031 C 9.523438 17.316406 9.816406 17.609375 10.171875 17.609375 L 16.957031 17.609375 C 17.316406 17.609375 17.609375 17.316406 17.609375 16.957031 L 17.609375 10.171875 C 17.609375 9.816406 17.316406 9.523438 16.957031 9.523438 Z M 16.304688 16.304688 L 10.824219 16.304688 L 10.824219 10.824219 L 16.304688 10.824219 Z M 16.304688 16.304688 "/>
</g>
</svg>
