<?xml version="1.0" encoding="UTF-8"?>
<svg xmlns="http://www.w3.org/2000/svg" xmlns:xlink="http://www.w3.org/1999/xlink" width="11pt" height="11pt" viewBox="0 0 11 11" version="1.1">
<g id="surface1">
<path style=" stroke:none;fill-rule:nonzero;fill:rgb(0%,0%,0%);fill-opacity:1;" d="M 9.28125 5.15625 L 2.421875 5.15625 L 5.050781 2.65625 C 5.1875 2.523438 5.191406 2.304688 5.0625 2.167969 C 4.929688 2.03125 4.714844 2.027344 4.574219 2.15625 L 1.578125 5.015625 C 1.445312 5.144531 1.375 5.316406 1.375 5.5 C 1.375 5.683594 1.445312 5.855469 1.582031 5.992188 L 4.574219 8.84375 C 4.640625 8.90625 4.726562 8.9375 4.8125 8.9375 C 4.902344 8.9375 4.992188 8.902344 5.0625 8.832031 C 5.191406 8.691406 5.1875 8.476562 5.050781 8.34375 L 2.414062 5.84375 L 9.28125 5.84375 C 9.472656 5.84375 9.625 5.691406 9.625 5.5 C 9.625 5.308594 9.472656 5.15625 9.28125 5.15625 Z M 9.28125 5.15625 "/>
</g>
</svg>
