<?xml version="1.0" encoding="UTF-8"?>
<svg xmlns="http://www.w3.org/2000/svg" xmlns:xlink="http://www.w3.org/1999/xlink" width="16pt" height="16pt" viewBox="0 0 16 16" version="1.1">
<g id="surface1">
<path style=" stroke:none;fill-rule:nonzero;fill:rgb(0%,0%,0%);fill-opacity:1;" d="M 2.3125 0.8125 C 1.210938 0.8125 0.492188 1.535156 0.492188 2.484375 C 0.492188 3.414062 1.191406 4.15625 2.269531 4.15625 L 2.292969 4.15625 C 3.414062 4.15625 4.113281 3.414062 4.113281 2.484375 C 4.089844 1.535156 3.414062 0.8125 2.3125 0.8125 Z M 2.3125 0.8125 "/>
<path style=" stroke:none;fill-rule:nonzero;fill:rgb(0%,0%,0%);fill-opacity:1;" d="M 0.683594 5.480469 L 3.898438 5.480469 L 3.898438 15.160156 L 0.683594 15.160156 Z M 0.683594 5.480469 "/>
<path style=" stroke:none;fill-rule:nonzero;fill:rgb(0%,0%,0%);fill-opacity:1;" d="M 11.796875 5.253906 C 10.0625 5.253906 8.898438 6.882812 8.898438 6.882812 L 8.898438 5.480469 L 5.679688 5.480469 L 5.679688 15.160156 L 8.898438 15.160156 L 8.898438 9.753906 C 8.898438 9.464844 8.917969 9.175781 9.003906 8.96875 C 9.234375 8.390625 9.765625 7.792969 10.652344 7.792969 C 11.820312 7.792969 12.285156 8.679688 12.285156 9.980469 L 12.285156 15.160156 L 15.5 15.160156 L 15.5 9.609375 C 15.5 6.636719 13.914062 5.253906 11.796875 5.253906 Z M 11.796875 5.253906 "/>
</g>
</svg>
