<?xml version="1.0" encoding="UTF-8"?>
<svg xmlns="http://www.w3.org/2000/svg" xmlns:xlink="http://www.w3.org/1999/xlink" width="14pt" height="14pt" viewBox="0 0 14 14" version="1.1">
<g id="surface1">
<path style=" stroke:none;fill-rule:nonzero;fill:rgb(0%,0%,0%);fill-opacity:1;" d="M 12.769531 2.078125 L 1.230469 2.078125 C 0.550781 2.078125 0 2.632812 0 3.308594 L 0 10.691406 C 0 11.371094 0.554688 11.921875 1.230469 11.921875 L 12.769531 11.921875 C 13.445312 11.921875 14 11.375 14 10.691406 L 14 3.308594 C 14 2.632812 13.453125 2.078125 12.769531 2.078125 Z M 12.597656 2.898438 C 12.347656 3.148438 8.019531 7.453125 7.871094 7.601562 C 7.636719 7.832031 7.328125 7.960938 7 7.960938 C 6.671875 7.960938 6.363281 7.832031 6.128906 7.601562 C 6.027344 7.5 1.75 3.242188 1.402344 2.898438 Z M 0.820312 10.523438 L 0.820312 3.476562 L 4.363281 7.003906 Z M 1.402344 11.101562 L 4.945312 7.582031 L 5.550781 8.179688 C 5.9375 8.566406 6.453125 8.78125 7 8.78125 C 7.546875 8.78125 8.0625 8.566406 8.449219 8.179688 L 9.054688 7.582031 L 12.597656 11.101562 Z M 13.179688 10.523438 L 9.636719 7.003906 L 13.179688 3.476562 Z M 13.179688 10.523438 "/>
</g>
</svg>
