<?xml version="1.0" encoding="UTF-8"?>
<svg xmlns="http://www.w3.org/2000/svg" xmlns:xlink="http://www.w3.org/1999/xlink" width="30pt" height="30pt" viewBox="0 0 30 30" version="1.1">
<g id="surface1">
<path style=" stroke:none;fill-rule:nonzero;fill:rgb(0%,0%,0%);fill-opacity:1;" d="M 15 24.667969 C 15.839844 24.667969 16.691406 24.613281 17.539062 24.5 C 19.09375 26.664062 21.527344 28.027344 24.15625 28.183594 C 24.171875 28.183594 24.1875 28.183594 24.207031 28.183594 C 24.535156 28.183594 24.835938 28 24.988281 27.703125 C 25.148438 27.394531 25.109375 27.019531 24.886719 26.75 C 24.003906 25.667969 23.382812 24.296875 23.101562 22.835938 C 26.964844 20.933594 30 17.5 30 13.242188 C 30 6.21875 22.308594 1.816406 15 1.816406 C 7.632812 1.816406 0 6.261719 0 13.242188 C 0 20.265625 7.691406 24.667969 15 24.667969 Z M 15 3.574219 C 21.300781 3.574219 28.242188 7.265625 28.242188 13.242188 C 28.242188 16.578125 25.765625 19.75 21.777344 21.515625 C 21.425781 21.671875 21.214844 22.042969 21.261719 22.425781 C 21.417969 23.710938 21.785156 24.929688 22.339844 26.035156 C 20.863281 25.5 19.570312 24.472656 18.703125 23.085938 C 18.515625 22.785156 18.167969 22.628906 17.820312 22.683594 C 16.882812 22.832031 15.933594 22.910156 15 22.910156 C 8.699219 22.910156 1.757812 19.21875 1.757812 13.242188 C 1.757812 7.359375 8.558594 3.574219 15 3.574219 Z M 15 3.574219 "/>
<path style=" stroke:none;fill-rule:nonzero;fill:rgb(0%,0%,0%);fill-opacity:1;" d="M 7.96875 15.878906 C 9.421875 15.878906 10.605469 14.695312 10.605469 13.242188 C 10.605469 11.789062 9.421875 10.605469 7.96875 10.605469 C 6.515625 10.605469 5.332031 11.789062 5.332031 13.242188 C 5.332031 14.695312 6.515625 15.878906 7.96875 15.878906 Z M 7.96875 12.363281 C 8.453125 12.363281 8.847656 12.757812 8.847656 13.242188 C 8.847656 13.726562 8.453125 14.121094 7.96875 14.121094 C 7.484375 14.121094 7.089844 13.726562 7.089844 13.242188 C 7.089844 12.757812 7.484375 12.363281 7.96875 12.363281 Z M 7.96875 12.363281 "/>
<path style=" stroke:none;fill-rule:nonzero;fill:rgb(0%,0%,0%);fill-opacity:1;" d="M 15 15.878906 C 16.453125 15.878906 17.636719 14.695312 17.636719 13.242188 C 17.636719 11.789062 16.453125 10.605469 15 10.605469 C 13.546875 10.605469 12.363281 11.789062 12.363281 13.242188 C 12.363281 14.695312 13.546875 15.878906 15 15.878906 Z M 15 12.363281 C 15.484375 12.363281 15.878906 12.757812 15.878906 13.242188 C 15.878906 13.726562 15.484375 14.121094 15 14.121094 C 14.515625 14.121094 14.121094 13.726562 14.121094 13.242188 C 14.121094 12.757812 14.515625 12.363281 15 12.363281 Z M 15 12.363281 "/>
<path style=" stroke:none;fill-rule:nonzero;fill:rgb(0%,0%,0%);fill-opacity:1;" d="M 22.03125 15.878906 C 23.484375 15.878906 24.667969 14.695312 24.667969 13.242188 C 24.667969 11.789062 23.484375 10.605469 22.03125 10.605469 C 20.578125 10.605469 19.394531 11.789062 19.394531 13.242188 C 19.394531 14.695312 20.578125 15.878906 22.03125 15.878906 Z M 22.03125 12.363281 C 22.515625 12.363281 22.910156 12.757812 22.910156 13.242188 C 22.910156 13.726562 22.515625 14.121094 22.03125 14.121094 C 21.546875 14.121094 21.152344 13.726562 21.152344 13.242188 C 21.152344 12.757812 21.546875 12.363281 22.03125 12.363281 Z M 22.03125 12.363281 "/>
</g>
</svg>
