<?xml version="1.0" encoding="UTF-8"?>
<svg xmlns="http://www.w3.org/2000/svg" xmlns:xlink="http://www.w3.org/1999/xlink" width="18pt" height="18pt" viewBox="0 0 18 18" version="1.1">
<g id="surface1">
<path style=" stroke:none;fill-rule:nonzero;fill:rgb(0%,0%,0%);fill-opacity:1;" d="M 3.667969 11.964844 C 5.441406 14.085938 7.582031 15.757812 10.019531 16.941406 C 10.949219 17.378906 12.191406 17.902344 13.574219 17.992188 C 13.660156 17.996094 13.742188 18 13.828125 18 C 14.757812 18 15.503906 17.679688 16.109375 17.019531 C 16.113281 17.015625 16.121094 17.007812 16.125 17 C 16.339844 16.738281 16.585938 16.503906 16.84375 16.253906 C 17.019531 16.085938 17.199219 15.910156 17.371094 15.730469 C 18.164062 14.902344 18.164062 13.851562 17.363281 13.050781 L 15.121094 10.808594 C 14.742188 10.414062 14.285156 10.203125 13.808594 10.203125 C 13.332031 10.203125 12.871094 10.414062 12.480469 10.804688 L 11.144531 12.140625 C 11.023438 12.070312 10.894531 12.007812 10.777344 11.945312 C 10.628906 11.871094 10.488281 11.800781 10.367188 11.722656 C 9.152344 10.949219 8.046875 9.945312 6.992188 8.648438 C 6.457031 7.972656 6.101562 7.40625 5.851562 6.828125 C 6.199219 6.511719 6.527344 6.179688 6.84375 5.855469 C 6.957031 5.738281 7.074219 5.625 7.1875 5.507812 C 7.589844 5.105469 7.808594 4.640625 7.808594 4.167969 C 7.808594 3.691406 7.59375 3.226562 7.1875 2.824219 L 6.078125 1.710938 C 5.945312 1.582031 5.824219 1.453125 5.695312 1.324219 C 5.449219 1.070312 5.191406 0.808594 4.941406 0.574219 C 4.554688 0.199219 4.105469 0 3.625 0 C 3.152344 0 2.699219 0.199219 2.300781 0.578125 L 0.902344 1.972656 C 0.398438 2.480469 0.109375 3.097656 0.0507812 3.808594 C -0.0195312 4.699219 0.144531 5.648438 0.570312 6.792969 C 1.222656 8.5625 2.207031 10.207031 3.667969 11.964844 Z M 0.960938 3.886719 C 1.003906 3.390625 1.195312 2.976562 1.554688 2.617188 L 2.941406 1.230469 C 3.15625 1.023438 3.394531 0.914062 3.625 0.914062 C 3.855469 0.914062 4.085938 1.023438 4.296875 1.238281 C 4.546875 1.46875 4.78125 1.710938 5.035156 1.96875 C 5.164062 2.101562 5.292969 2.230469 5.425781 2.363281 L 6.535156 3.476562 C 6.765625 3.707031 6.886719 3.941406 6.886719 4.171875 C 6.886719 4.40625 6.765625 4.640625 6.535156 4.871094 C 6.421875 4.988281 6.304688 5.105469 6.1875 5.222656 C 5.84375 5.574219 5.519531 5.902344 5.160156 6.222656 C 5.152344 6.230469 5.148438 6.234375 5.140625 6.238281 C 4.832031 6.550781 4.878906 6.84375 4.953125 7.066406 C 4.957031 7.078125 4.960938 7.085938 4.964844 7.097656 C 5.253906 7.789062 5.652344 8.445312 6.273438 9.226562 C 7.394531 10.609375 8.574219 11.679688 9.871094 12.503906 C 10.03125 12.605469 10.203125 12.6875 10.363281 12.769531 C 10.511719 12.84375 10.648438 12.917969 10.773438 12.996094 C 10.789062 13.003906 10.800781 13.007812 10.8125 13.015625 C 10.9375 13.082031 11.054688 13.109375 11.175781 13.109375 C 11.472656 13.109375 11.667969 12.921875 11.730469 12.855469 L 13.125 11.460938 C 13.34375 11.246094 13.578125 11.128906 13.808594 11.128906 C 14.09375 11.128906 14.324219 11.304688 14.46875 11.460938 L 16.71875 13.707031 C 17.164062 14.15625 17.164062 14.640625 16.707031 15.113281 C 16.550781 15.28125 16.386719 15.441406 16.210938 15.609375 C 15.949219 15.863281 15.679688 16.125 15.429688 16.417969 C 15.003906 16.882812 14.492188 17.097656 13.832031 17.097656 C 13.769531 17.097656 13.699219 17.09375 13.636719 17.089844 C 12.414062 17.011719 11.277344 16.535156 10.421875 16.128906 C 8.101562 15.003906 6.066406 13.414062 4.375 11.390625 C 2.984375 9.714844 2.050781 8.15625 1.429688 6.484375 C 1.046875 5.460938 0.898438 4.636719 0.960938 3.886719 Z M 0.960938 3.886719 "/>
</g>
</svg>
