<?xml version="1.0" encoding="UTF-8"?>
<svg xmlns="http://www.w3.org/2000/svg" xmlns:xlink="http://www.w3.org/1999/xlink" width="16pt" height="16pt" viewBox="0 0 16 16" version="1.1">
<g id="surface1">
<path style=" stroke:none;fill-rule:nonzero;fill:rgb(82.745098%,18.431373%,18.431373%);fill-opacity:1;" d="M 8.21875 0 C 3.832031 0 1.5 2.808594 1.5 5.875 C 1.5 7.296875 2.292969 9.066406 3.566406 9.628906 C 3.757812 9.714844 3.863281 9.679688 3.90625 9.5 C 3.945312 9.363281 4.109375 8.710938 4.191406 8.398438 C 4.21875 8.300781 4.203125 8.214844 4.125 8.121094 C 3.703125 7.632812 3.367188 6.746094 3.367188 5.910156 C 3.367188 3.773438 5.066406 1.699219 7.957031 1.699219 C 10.457031 1.699219 12.207031 3.324219 12.207031 5.644531 C 12.207031 8.269531 10.816406 10.085938 9.011719 10.085938 C 8.011719 10.085938 7.269531 9.304688 7.503906 8.332031 C 7.789062 7.179688 8.347656 5.9375 8.347656 5.101562 C 8.347656 4.355469 7.925781 3.738281 7.066406 3.738281 C 6.046875 3.738281 5.222656 4.746094 5.222656 6.097656 C 5.222656 6.957031 5.527344 7.535156 5.527344 7.535156 C 5.527344 7.535156 4.519531 11.601562 4.335938 12.359375 C 4.019531 13.644531 4.378906 15.726562 4.410156 15.90625 C 4.425781 16.003906 4.539062 16.035156 4.601562 15.953125 C 4.699219 15.824219 5.914062 14.089844 6.257812 12.835938 C 6.378906 12.378906 6.890625 10.523438 6.890625 10.523438 C 7.222656 11.128906 8.191406 11.636719 9.222656 11.636719 C 12.285156 11.636719 14.5 8.945312 14.5 5.601562 C 14.488281 2.398438 11.746094 0 8.21875 0 "/>
</g>
</svg>
