<?xml version="1.0" encoding="UTF-8"?>
<svg xmlns="http://www.w3.org/2000/svg" xmlns:xlink="http://www.w3.org/1999/xlink" width="59" height="59" viewBox="0 0 59 59" version="1.1">
<g id="surface1">
<path style="fill:#dee0e8" d="M 55.976562 3.460938 L 37.582031 3.460938 C 35.910156 3.460938 34.554688 4.816406 34.554688 6.488281 L 34.554688 24.882812 C 34.554688 26.554688 35.910156 27.910156 37.582031 27.910156 L 46.386719 27.910156 C 46.269531 32.726562 45.152344 36.578125 43.03125 39.476562 C 41.363281 41.765625 38.832031 43.660156 35.449219 45.15625 C 33.894531 45.839844 33.222656 47.679688 33.949219 49.214844 L 36.128906 53.8125 C 36.832031 55.289062 38.566406 55.9375 40.066406 55.289062 C 44.074219 53.558594 47.457031 51.371094 50.214844 48.707031 C 53.582031 45.457031 55.886719 41.789062 57.132812 37.699219 C 58.378906 33.609375 59.003906 28.03125 59.003906 20.949219 L 59.003906 6.488281 C 59.003906 4.816406 57.648438 3.460938 55.976562 3.460938 Z M 55.976562 3.460938 "/>
        <path style="fill:#dee0e8" d="M 6.417969 55.277344 C 10.375 53.554688 13.738281 51.363281 16.515625 48.707031 C 19.910156 45.457031 22.230469 41.800781 23.476562 37.742188 C 24.722656 33.679688 25.34375 28.082031 25.34375 20.949219 L 25.34375 6.488281 C 25.34375 4.816406 23.988281 3.460938 22.320312 3.460938 L 3.921875 3.460938 C 2.253906 3.460938 0.898438 4.816406 0.898438 6.488281 L 0.898438 24.882812 C 0.898438 26.554688 2.253906 27.910156 3.921875 27.910156 L 12.726562 27.910156 C 12.613281 32.726562 11.492188 36.578125 9.375 39.476562 C 7.707031 41.765625 5.175781 43.660156 1.792969 45.15625 C 0.238281 45.839844 -0.433594 47.679688 0.292969 49.214844 L 2.464844 53.800781 C 3.167969 55.277344 4.914062 55.933594 6.417969 55.277344 Z M 6.417969 55.277344 "/>
</g>
</svg>
