<?xml version="1.0" encoding="UTF-8"?>
<svg xmlns="http://www.w3.org/2000/svg" xmlns:xlink="http://www.w3.org/1999/xlink" width="11pt" height="11pt" viewBox="0 0 11 11" version="1.1">
<g id="surface1">
<path style=" stroke:none;fill-rule:nonzero;fill:rgb(0%,0%,0%);fill-opacity:1;" d="M 6.425781 2.15625 C 6.289062 2.027344 6.070312 2.03125 5.9375 2.167969 C 5.808594 2.308594 5.8125 2.523438 5.949219 2.65625 L 8.585938 5.15625 L 1.71875 5.15625 C 1.527344 5.15625 1.375 5.308594 1.375 5.5 C 1.375 5.691406 1.527344 5.84375 1.71875 5.84375 L 8.578125 5.84375 L 5.949219 8.34375 C 5.8125 8.476562 5.808594 8.695312 5.9375 8.832031 C 6.007812 8.902344 6.097656 8.9375 6.1875 8.9375 C 6.273438 8.9375 6.359375 8.90625 6.425781 8.84375 L 9.421875 5.984375 C 9.554688 5.855469 9.625 5.683594 9.625 5.5 C 9.625 5.316406 9.554688 5.144531 9.417969 5.007812 Z M 6.425781 2.15625 "/>
</g>
</svg>
