<?xml version="1.0" encoding="UTF-8"?>
<svg xmlns="http://www.w3.org/2000/svg" xmlns:xlink="http://www.w3.org/1999/xlink" width="17pt" height="17pt" viewBox="0 0 17 17" version="1.1">
<g id="surface1">
<path style=" stroke:none;fill-rule:nonzero;fill:rgb(0%,0%,0%);fill-opacity:1;" d="M 7.488281 0 C 3.359375 0 0 3.359375 0 7.488281 C 0 11.613281 3.359375 14.972656 7.488281 14.972656 C 11.613281 14.972656 14.972656 11.613281 14.972656 7.488281 C 14.972656 3.359375 11.613281 0 7.488281 0 Z M 7.488281 13.589844 C 4.121094 13.589844 1.382812 10.851562 1.382812 7.488281 C 1.382812 4.121094 4.121094 1.382812 7.488281 1.382812 C 10.851562 1.382812 13.589844 4.121094 13.589844 7.488281 C 13.589844 10.851562 10.851562 13.589844 7.488281 13.589844 Z M 7.488281 13.589844 "/>
<path style=" stroke:none;fill-rule:nonzero;fill:rgb(0%,0%,0%);fill-opacity:1;" d="M 16.796875 15.820312 L 12.835938 11.859375 C 12.566406 11.589844 12.128906 11.589844 11.859375 11.859375 C 11.589844 12.128906 11.589844 12.566406 11.859375 12.835938 L 15.820312 16.796875 C 15.957031 16.933594 16.132812 17 16.308594 17 C 16.484375 17 16.664062 16.933594 16.796875 16.796875 C 17.066406 16.527344 17.066406 16.089844 16.796875 15.820312 Z M 16.796875 15.820312 "/>
</g>
</svg>
