<?xml version="1.0" encoding="UTF-8"?>
<svg xmlns="http://www.w3.org/2000/svg" xmlns:xlink="http://www.w3.org/1999/xlink" width="30pt" height="30pt" viewBox="0 0 30 30" version="1.1">
<g id="surface1">
<path style=" stroke:none;fill-rule:nonzero;fill:rgb(0%,0%,0%);fill-opacity:1;" d="M 6.113281 19.941406 C 9.070312 23.480469 12.632812 26.265625 16.699219 28.234375 C 18.246094 28.96875 20.316406 29.839844 22.625 29.988281 C 22.765625 29.992188 22.902344 30 23.046875 30 C 24.59375 30 25.835938 29.464844 26.851562 28.363281 C 26.855469 28.359375 26.871094 28.347656 26.875 28.335938 C 27.234375 27.898438 27.644531 27.507812 28.074219 27.089844 C 28.367188 26.8125 28.664062 26.519531 28.953125 26.21875 C 30.277344 24.839844 30.277344 23.085938 28.9375 21.75 L 25.203125 18.015625 C 24.570312 17.355469 23.8125 17.007812 23.015625 17.007812 C 22.21875 17.007812 21.453125 17.355469 20.800781 18.007812 L 18.578125 20.234375 C 18.371094 20.117188 18.160156 20.011719 17.960938 19.910156 C 17.710938 19.785156 17.484375 19.667969 17.277344 19.539062 C 15.25 18.25 13.410156 16.574219 11.652344 14.414062 C 10.761719 13.289062 10.167969 12.34375 9.75 11.382812 C 10.332031 10.855469 10.882812 10.300781 11.410156 9.757812 C 11.597656 9.566406 11.789062 9.375 11.980469 9.179688 C 12.652344 8.511719 13.011719 7.734375 13.011719 6.945312 C 13.011719 6.152344 12.660156 5.378906 11.980469 4.707031 L 10.128906 2.851562 C 9.910156 2.636719 9.707031 2.425781 9.496094 2.207031 C 9.085938 1.785156 8.65625 1.347656 8.234375 0.957031 C 7.59375 0.328125 6.839844 0 6.042969 0 C 5.253906 0 4.496094 0.328125 3.832031 0.964844 L 1.507812 3.289062 C 0.660156 4.132812 0.183594 5.160156 0.0820312 6.347656 C -0.0351562 7.832031 0.238281 9.410156 0.949219 11.320312 C 2.035156 14.273438 3.675781 17.015625 6.113281 19.941406 Z M 1.601562 6.476562 C 1.675781 5.652344 1.992188 4.960938 2.589844 4.363281 L 4.902344 2.050781 C 5.261719 1.703125 5.660156 1.523438 6.042969 1.523438 C 6.425781 1.523438 6.808594 1.703125 7.164062 2.0625 C 7.582031 2.449219 7.972656 2.851562 8.394531 3.28125 C 8.605469 3.5 8.824219 3.71875 9.039062 3.941406 L 10.894531 5.792969 C 11.277344 6.179688 11.476562 6.570312 11.476562 6.957031 C 11.476562 7.339844 11.277344 7.734375 10.894531 8.117188 C 10.699219 8.3125 10.507812 8.511719 10.316406 8.703125 C 9.738281 9.289062 9.195312 9.839844 8.597656 10.367188 C 8.585938 10.382812 8.582031 10.386719 8.570312 10.398438 C 8.050781 10.914062 8.132812 11.40625 8.257812 11.78125 C 8.265625 11.796875 8.269531 11.8125 8.277344 11.828125 C 8.753906 12.980469 9.421875 14.074219 10.457031 15.378906 C 12.324219 17.679688 14.289062 19.464844 16.449219 20.835938 C 16.71875 21.011719 17.003906 21.148438 17.269531 21.285156 C 17.519531 21.410156 17.75 21.527344 17.957031 21.65625 C 17.980469 21.671875 18 21.683594 18.023438 21.695312 C 18.230469 21.800781 18.425781 21.851562 18.625 21.851562 C 19.125 21.851562 19.445312 21.535156 19.554688 21.425781 L 21.878906 19.101562 C 22.238281 18.742188 22.628906 18.550781 23.015625 18.550781 C 23.488281 18.550781 23.875 18.839844 24.117188 19.101562 L 27.863281 22.84375 C 28.609375 23.589844 28.605469 24.398438 27.84375 25.1875 C 27.585938 25.46875 27.3125 25.734375 27.019531 26.015625 C 26.582031 26.4375 26.128906 26.875 25.71875 27.363281 C 25.003906 28.136719 24.152344 28.496094 23.050781 28.496094 C 22.945312 28.496094 22.835938 28.488281 22.730469 28.484375 C 20.691406 28.351562 18.792969 27.558594 17.371094 26.878906 C 13.503906 25.007812 10.109375 22.355469 7.292969 18.984375 C 4.976562 16.195312 3.414062 13.59375 2.382812 10.808594 C 1.742188 9.101562 1.5 7.726562 1.601562 6.476562 Z M 1.601562 6.476562 "/>
</g>
</svg>
