<?xml version="1.0" encoding="UTF-8"?>
<svg xmlns="http://www.w3.org/2000/svg" xmlns:xlink="http://www.w3.org/1999/xlink" width="35pt" height="35pt" viewBox="0 0 35 35" version="1.1">
<g id="surface1">
<path style="fill: #F84E77" d="M 33.511719 20.460938 L 21.109375 7.328125 C 20.398438 6.617188 19.503906 6.136719 18.527344 5.9375 C 17.855469 5.800781 17.140625 5.800781 16.472656 5.9375 C 15.496094 6.136719 14.601562 6.617188 13.875 7.34375 L 1.496094 20.453125 C 0.53125 21.417969 0 22.699219 0 24.0625 C 0 26.875 2.289062 29.167969 5.105469 29.167969 C 6.46875 29.167969 7.75 28.636719 8.730469 27.65625 L 17.5 18.367188 L 26.285156 27.671875 C 27.25 28.636719 28.53125 29.167969 29.894531 29.167969 C 32.710938 29.167969 35 26.875 35 24.0625 C 35 22.703125 34.472656 21.421875 33.511719 20.460938 Z M 29.894531 27.707031 C 28.921875 27.707031 28.007812 27.328125 27.332031 26.652344 L 18.03125 16.804688 C 17.894531 16.660156 17.699219 16.578125 17.5 16.578125 C 17.300781 16.578125 17.105469 16.660156 16.96875 16.804688 L 7.683594 26.640625 C 6.992188 27.328125 6.078125 27.707031 5.105469 27.707031 C 3.09375 27.707031 1.457031 26.074219 1.457031 24.0625 C 1.457031 23.089844 1.835938 22.171875 2.539062 21.46875 L 14.921875 8.359375 C 15.429688 7.851562 16.066406 7.507812 16.765625 7.367188 C 17.242188 7.265625 17.753906 7.265625 18.234375 7.367188 C 18.933594 7.507812 19.570312 7.851562 20.0625 8.34375 L 32.460938 21.46875 C 32.464844 21.472656 32.46875 21.480469 32.472656 21.484375 C 33.164062 22.171875 33.542969 23.089844 33.542969 24.0625 C 33.542969 26.074219 31.90625 27.707031 29.894531 27.707031 Z M 29.894531 27.707031 "/>
</g>
</svg>
