<?xml version="1.0" encoding="UTF-8"?>
<svg xmlns="http://www.w3.org/2000/svg" xmlns:xlink="http://www.w3.org/1999/xlink" width="16pt" height="16pt" viewBox="0 0 16 16" version="1.1">
<g id="surface1">
<path style=" stroke:none;fill-rule:nonzero;fill:rgb(0%,0%,0%);fill-opacity:1;" d="M 9.179688 4.773438 C 11.003906 3.679688 11.984375 5.222656 11.050781 6.964844 C 10.113281 8.714844 9.253906 9.855469 8.8125 9.855469 C 8.375 9.855469 8.027344 8.683594 7.515625 6.644531 C 6.992188 4.535156 6.992188 0.726562 4.792969 1.160156 C 2.71875 1.570312 0 4.820312 0 4.820312 L 0.644531 5.671875 C 0.644531 5.671875 1.984375 4.613281 2.433594 5.140625 C 2.882812 5.671875 4.59375 12.046875 5.160156 13.226562 C 5.65625 14.257812 7.027344 15.621094 8.523438 14.648438 C 10.035156 13.671875 15.027344 9.410156 15.921875 4.367188 C 16.8125 -0.667969 9.90625 0.386719 9.179688 4.773438 Z M 9.179688 4.773438 "/>
</g>
</svg>
